%TF.GenerationSoftware,KiCad,Pcbnew,(6.0.9)*%
%TF.CreationDate,2023-11-02T17:09:57-06:00*%
%TF.ProjectId,MagicWand_Motherboard,4d616769-6357-4616-9e64-5f4d6f746865,rev?*%
%TF.SameCoordinates,Original*%
%TF.FileFunction,Copper,L2,Bot*%
%TF.FilePolarity,Positive*%
%FSLAX46Y46*%
G04 Gerber Fmt 4.6, Leading zero omitted, Abs format (unit mm)*
G04 Created by KiCad (PCBNEW (6.0.9)) date 2023-11-02 17:09:57*
%MOMM*%
%LPD*%
G01*
G04 APERTURE LIST*
%TA.AperFunction,ComponentPad*%
%ADD10C,1.700000*%
%TD*%
%TA.AperFunction,ComponentPad*%
%ADD11R,1.700000X1.700000*%
%TD*%
%TA.AperFunction,ComponentPad*%
%ADD12O,1.700000X1.700000*%
%TD*%
%TA.AperFunction,ViaPad*%
%ADD13C,0.800000*%
%TD*%
%TA.AperFunction,Conductor*%
%ADD14C,0.250000*%
%TD*%
G04 APERTURE END LIST*
D10*
%TO.P,SW2,1,1*%
%TO.N,Net-(J1-Pad3)*%
X139954000Y-96012000D03*
X152654000Y-96012000D03*
%TO.P,SW2,2,2*%
%TO.N,GND*%
X139954000Y-90932000D03*
X152654000Y-90932000D03*
%TD*%
%TO.P,SW3,1,1*%
%TO.N,Net-(J1-Pad4)*%
X137414000Y-78232000D03*
X124714000Y-78232000D03*
%TO.P,SW3,2,2*%
%TO.N,GND*%
X124714000Y-83312000D03*
X137414000Y-83312000D03*
%TD*%
%TO.P,SW1,1,1*%
%TO.N,Net-(J1-Pad2)*%
X139954000Y-78232000D03*
X152654000Y-78232000D03*
%TO.P,SW1,2,2*%
%TO.N,GND*%
X139954000Y-83312000D03*
X152654000Y-83312000D03*
%TD*%
%TO.P,SW4,1,1*%
%TO.N,Net-(J1-Pad5)*%
X124714000Y-90932000D03*
X137414000Y-90932000D03*
%TO.P,SW4,2,2*%
%TO.N,GND*%
X137414000Y-96012000D03*
X124714000Y-96012000D03*
%TD*%
%TO.P,U1,1,D0*%
%TO.N,unconnected-(U1-Pad1)*%
X235712000Y-93472000D03*
%TO.P,U1,2,VCC*%
%TO.N,VCC*%
X233172000Y-93472000D03*
%TO.P,U1,3,RX*%
%TO.N,Net-(J1-Pad6)*%
X230632000Y-93472000D03*
%TO.P,U1,4,TX*%
%TO.N,Net-(J1-Pad7)*%
X228092000Y-93472000D03*
%TO.P,U1,5,GND*%
%TO.N,GND*%
X225552000Y-93472000D03*
%TO.P,U1,6,D1*%
%TO.N,unconnected-(U1-Pad6)*%
X223012000Y-93472000D03*
%TO.P,U1,7,D3*%
%TO.N,unconnected-(U1-Pad7)*%
X223012000Y-80772000D03*
%TO.P,U1,8,GND*%
%TO.N,unconnected-(U1-Pad8)*%
X225552000Y-80772000D03*
%TO.P,U1,9,SDA*%
%TO.N,unconnected-(U1-Pad9)*%
X228092000Y-80772000D03*
%TO.P,U1,10,SCL*%
%TO.N,unconnected-(U1-Pad10)*%
X230632000Y-80772000D03*
%TO.P,U1,11,VCC*%
%TO.N,unconnected-(U1-Pad11)*%
X233172000Y-80772000D03*
%TO.P,U1,12,D2*%
%TO.N,unconnected-(U1-Pad12)*%
X235712000Y-80772000D03*
%TD*%
D11*
%TO.P,J1,1,Pin_1*%
%TO.N,VCC*%
X107442000Y-78247000D03*
D12*
%TO.P,J1,2,Pin_2*%
%TO.N,Net-(J1-Pad2)*%
X107442000Y-80787000D03*
%TO.P,J1,3,Pin_3*%
%TO.N,Net-(J1-Pad3)*%
X107442000Y-83327000D03*
%TO.P,J1,4,Pin_4*%
%TO.N,Net-(J1-Pad4)*%
X107442000Y-85867000D03*
%TO.P,J1,5,Pin_5*%
%TO.N,Net-(J1-Pad5)*%
X107442000Y-88407000D03*
%TO.P,J1,6,Pin_6*%
%TO.N,Net-(J1-Pad6)*%
X107442000Y-90947000D03*
%TO.P,J1,7,Pin_7*%
%TO.N,Net-(J1-Pad7)*%
X107442000Y-93487000D03*
%TO.P,J1,8,Pin_8*%
%TO.N,GND*%
X107442000Y-96027000D03*
%TD*%
D13*
%TO.N,Net-(J1-Pad4)*%
X110475000Y-85867000D03*
%TO.N,GND*%
X110236000Y-96012000D03*
X146558000Y-83312000D03*
X131064000Y-83312000D03*
X131064000Y-96012000D03*
X146558000Y-90932000D03*
%TD*%
D14*
%TO.N,Net-(J1-Pad4)*%
X110475000Y-85867000D02*
X113523000Y-85867000D01*
X113523000Y-85867000D02*
X121158000Y-78232000D01*
X121158000Y-78232000D02*
X124714000Y-78232000D01*
%TO.N,Net-(J1-Pad2)*%
X107442000Y-80787000D02*
X117333000Y-80787000D01*
X117333000Y-80787000D02*
X121666000Y-76454000D01*
X121666000Y-76454000D02*
X138176000Y-76454000D01*
X138176000Y-76454000D02*
X139954000Y-78232000D01*
%TD*%
%TA.AperFunction,Conductor*%
%TO.N,GND*%
G36*
X243433621Y-74950502D02*
G01*
X243480114Y-75004158D01*
X243491500Y-75056500D01*
X243491500Y-99187500D01*
X243471498Y-99255621D01*
X243417842Y-99302114D01*
X243365500Y-99313500D01*
X69634500Y-99313500D01*
X69566379Y-99293498D01*
X69519886Y-99239842D01*
X69508500Y-99187500D01*
X69508500Y-96294966D01*
X106110257Y-96294966D01*
X106140565Y-96429446D01*
X106143645Y-96439275D01*
X106223770Y-96636603D01*
X106228413Y-96645794D01*
X106339694Y-96827388D01*
X106345777Y-96835699D01*
X106485213Y-96996667D01*
X106492580Y-97003883D01*
X106656434Y-97139916D01*
X106664881Y-97145831D01*
X106848756Y-97253279D01*
X106858042Y-97257729D01*
X107057001Y-97333703D01*
X107066899Y-97336579D01*
X107170250Y-97357606D01*
X107184299Y-97356410D01*
X107188000Y-97346065D01*
X107188000Y-97345517D01*
X107696000Y-97345517D01*
X107700064Y-97359359D01*
X107713478Y-97361393D01*
X107720184Y-97360534D01*
X107730262Y-97358392D01*
X107934255Y-97297191D01*
X107943842Y-97293433D01*
X108135095Y-97199739D01*
X108143945Y-97194464D01*
X108224713Y-97136853D01*
X123953977Y-97136853D01*
X123959258Y-97143907D01*
X124120756Y-97238279D01*
X124130042Y-97242729D01*
X124329001Y-97318703D01*
X124338899Y-97321579D01*
X124547595Y-97364038D01*
X124557823Y-97365257D01*
X124770650Y-97373062D01*
X124780936Y-97372595D01*
X124992185Y-97345534D01*
X125002262Y-97343392D01*
X125206255Y-97282191D01*
X125215842Y-97278433D01*
X125407098Y-97184738D01*
X125415944Y-97179465D01*
X125463247Y-97145723D01*
X125470211Y-97136853D01*
X136653977Y-97136853D01*
X136659258Y-97143907D01*
X136820756Y-97238279D01*
X136830042Y-97242729D01*
X137029001Y-97318703D01*
X137038899Y-97321579D01*
X137247595Y-97364038D01*
X137257823Y-97365257D01*
X137470650Y-97373062D01*
X137480936Y-97372595D01*
X137692185Y-97345534D01*
X137702262Y-97343392D01*
X137906255Y-97282191D01*
X137915842Y-97278433D01*
X138107098Y-97184738D01*
X138115944Y-97179465D01*
X138163247Y-97145723D01*
X138171648Y-97135023D01*
X138164660Y-97121870D01*
X137426812Y-96384022D01*
X137412868Y-96376408D01*
X137411035Y-96376539D01*
X137404420Y-96380790D01*
X136660737Y-97124473D01*
X136653977Y-97136853D01*
X125470211Y-97136853D01*
X125471648Y-97135023D01*
X125464660Y-97121870D01*
X124726812Y-96384022D01*
X124712868Y-96376408D01*
X124711035Y-96376539D01*
X124704420Y-96380790D01*
X123960737Y-97124473D01*
X123953977Y-97136853D01*
X108224713Y-97136853D01*
X108317328Y-97070792D01*
X108325200Y-97064139D01*
X108476052Y-96913812D01*
X108482730Y-96905965D01*
X108607003Y-96733020D01*
X108612313Y-96724183D01*
X108706670Y-96533267D01*
X108710469Y-96523672D01*
X108772377Y-96319910D01*
X108774555Y-96309837D01*
X108775986Y-96298962D01*
X108773775Y-96284778D01*
X108760617Y-96281000D01*
X107714115Y-96281000D01*
X107698876Y-96285475D01*
X107697671Y-96286865D01*
X107696000Y-96294548D01*
X107696000Y-97345517D01*
X107188000Y-97345517D01*
X107188000Y-96299115D01*
X107183525Y-96283876D01*
X107182135Y-96282671D01*
X107174452Y-96281000D01*
X106125225Y-96281000D01*
X106111694Y-96284973D01*
X106110257Y-96294966D01*
X69508500Y-96294966D01*
X69508500Y-95983863D01*
X123352050Y-95983863D01*
X123364309Y-96196477D01*
X123365745Y-96206697D01*
X123412565Y-96414446D01*
X123415645Y-96424275D01*
X123495770Y-96621603D01*
X123500413Y-96630794D01*
X123580460Y-96761420D01*
X123590916Y-96770880D01*
X123599694Y-96767096D01*
X124341978Y-96024812D01*
X124348356Y-96013132D01*
X125078408Y-96013132D01*
X125078539Y-96014965D01*
X125082790Y-96021580D01*
X125824474Y-96763264D01*
X125836484Y-96769823D01*
X125848223Y-96760855D01*
X125879004Y-96718019D01*
X125884315Y-96709180D01*
X125978670Y-96518267D01*
X125982469Y-96508672D01*
X126044376Y-96304915D01*
X126046555Y-96294834D01*
X126074590Y-96081887D01*
X126075109Y-96075212D01*
X126076572Y-96015364D01*
X126076378Y-96008646D01*
X126074341Y-95983863D01*
X136052050Y-95983863D01*
X136064309Y-96196477D01*
X136065745Y-96206697D01*
X136112565Y-96414446D01*
X136115645Y-96424275D01*
X136195770Y-96621603D01*
X136200413Y-96630794D01*
X136280460Y-96761420D01*
X136290916Y-96770880D01*
X136299694Y-96767096D01*
X137041978Y-96024812D01*
X137048356Y-96013132D01*
X137778408Y-96013132D01*
X137778539Y-96014965D01*
X137782790Y-96021580D01*
X138524474Y-96763264D01*
X138536484Y-96769823D01*
X138548223Y-96760855D01*
X138582022Y-96713819D01*
X138583277Y-96714721D01*
X138630391Y-96671355D01*
X138700330Y-96659148D01*
X138765767Y-96686691D01*
X138793580Y-96718513D01*
X138851287Y-96812683D01*
X138851291Y-96812688D01*
X138853987Y-96817088D01*
X139000250Y-96985938D01*
X139172126Y-97128632D01*
X139365000Y-97241338D01*
X139369825Y-97243180D01*
X139369826Y-97243181D01*
X139442612Y-97270975D01*
X139573692Y-97321030D01*
X139578760Y-97322061D01*
X139578763Y-97322062D01*
X139635981Y-97333703D01*
X139792597Y-97365567D01*
X139797772Y-97365757D01*
X139797774Y-97365757D01*
X140010673Y-97373564D01*
X140010677Y-97373564D01*
X140015837Y-97373753D01*
X140020957Y-97373097D01*
X140020959Y-97373097D01*
X140232288Y-97346025D01*
X140232289Y-97346025D01*
X140237416Y-97345368D01*
X140242366Y-97343883D01*
X140446429Y-97282661D01*
X140446434Y-97282659D01*
X140451384Y-97281174D01*
X140651994Y-97182896D01*
X140833860Y-97053173D01*
X140992096Y-96895489D01*
X141051594Y-96812689D01*
X141119435Y-96718277D01*
X141122453Y-96714077D01*
X141124874Y-96709180D01*
X141219136Y-96518453D01*
X141219137Y-96518451D01*
X141221430Y-96513811D01*
X141286370Y-96300069D01*
X141315529Y-96078590D01*
X141317156Y-96012000D01*
X141314418Y-95978695D01*
X151291251Y-95978695D01*
X151291548Y-95983848D01*
X151291548Y-95983851D01*
X151297011Y-96078590D01*
X151304110Y-96201715D01*
X151305247Y-96206761D01*
X151305248Y-96206767D01*
X151325119Y-96294939D01*
X151353222Y-96419639D01*
X151437266Y-96626616D01*
X151439965Y-96631020D01*
X151551288Y-96812683D01*
X151553987Y-96817088D01*
X151700250Y-96985938D01*
X151872126Y-97128632D01*
X152065000Y-97241338D01*
X152069825Y-97243180D01*
X152069826Y-97243181D01*
X152142612Y-97270975D01*
X152273692Y-97321030D01*
X152278760Y-97322061D01*
X152278763Y-97322062D01*
X152335981Y-97333703D01*
X152492597Y-97365567D01*
X152497772Y-97365757D01*
X152497774Y-97365757D01*
X152710673Y-97373564D01*
X152710677Y-97373564D01*
X152715837Y-97373753D01*
X152720957Y-97373097D01*
X152720959Y-97373097D01*
X152932288Y-97346025D01*
X152932289Y-97346025D01*
X152937416Y-97345368D01*
X152942366Y-97343883D01*
X153146429Y-97282661D01*
X153146434Y-97282659D01*
X153151384Y-97281174D01*
X153351994Y-97182896D01*
X153533860Y-97053173D01*
X153692096Y-96895489D01*
X153751594Y-96812689D01*
X153819435Y-96718277D01*
X153822453Y-96714077D01*
X153824874Y-96709180D01*
X153919136Y-96518453D01*
X153919137Y-96518451D01*
X153921430Y-96513811D01*
X153986370Y-96300069D01*
X154015529Y-96078590D01*
X154017156Y-96012000D01*
X153998852Y-95789361D01*
X153944431Y-95572702D01*
X153855354Y-95367840D01*
X153734014Y-95180277D01*
X153583670Y-95015051D01*
X153579619Y-95011852D01*
X153579615Y-95011848D01*
X153412414Y-94879800D01*
X153412410Y-94879798D01*
X153408359Y-94876598D01*
X153399208Y-94871546D01*
X153315916Y-94825567D01*
X153212789Y-94768638D01*
X153207920Y-94766914D01*
X153207916Y-94766912D01*
X153007087Y-94695795D01*
X153007083Y-94695794D01*
X153002212Y-94694069D01*
X152997119Y-94693162D01*
X152997116Y-94693161D01*
X152787373Y-94655800D01*
X152787367Y-94655799D01*
X152782284Y-94654894D01*
X152708452Y-94653992D01*
X152564081Y-94652228D01*
X152564079Y-94652228D01*
X152558911Y-94652165D01*
X152338091Y-94685955D01*
X152125756Y-94755357D01*
X152080909Y-94778703D01*
X151991480Y-94825257D01*
X151927607Y-94858507D01*
X151923474Y-94861610D01*
X151923471Y-94861612D01*
X151753100Y-94989530D01*
X151748965Y-94992635D01*
X151594629Y-95154138D01*
X151591715Y-95158410D01*
X151591714Y-95158411D01*
X151526511Y-95253995D01*
X151468743Y-95338680D01*
X151374688Y-95541305D01*
X151314989Y-95756570D01*
X151291251Y-95978695D01*
X141314418Y-95978695D01*
X141298852Y-95789361D01*
X141244431Y-95572702D01*
X141155354Y-95367840D01*
X141034014Y-95180277D01*
X140883670Y-95015051D01*
X140879619Y-95011852D01*
X140879615Y-95011848D01*
X140712414Y-94879800D01*
X140712410Y-94879798D01*
X140708359Y-94876598D01*
X140699208Y-94871546D01*
X140615916Y-94825567D01*
X140512789Y-94768638D01*
X140507920Y-94766914D01*
X140507916Y-94766912D01*
X140307087Y-94695795D01*
X140307083Y-94695794D01*
X140302212Y-94694069D01*
X140297119Y-94693162D01*
X140297116Y-94693161D01*
X140087373Y-94655800D01*
X140087367Y-94655799D01*
X140082284Y-94654894D01*
X140008452Y-94653992D01*
X139864081Y-94652228D01*
X139864079Y-94652228D01*
X139858911Y-94652165D01*
X139638091Y-94685955D01*
X139425756Y-94755357D01*
X139380909Y-94778703D01*
X139291480Y-94825257D01*
X139227607Y-94858507D01*
X139223474Y-94861610D01*
X139223471Y-94861612D01*
X139053100Y-94989530D01*
X139048965Y-94992635D01*
X138894629Y-95154138D01*
X138891715Y-95158410D01*
X138891714Y-95158411D01*
X138840153Y-95233997D01*
X138821693Y-95261059D01*
X138786898Y-95312066D01*
X138731987Y-95357069D01*
X138661462Y-95365240D01*
X138597715Y-95333986D01*
X138577017Y-95309501D01*
X138547062Y-95263197D01*
X138536377Y-95253995D01*
X138526812Y-95258398D01*
X137786022Y-95999188D01*
X137778408Y-96013132D01*
X137048356Y-96013132D01*
X137049592Y-96010868D01*
X137049461Y-96009035D01*
X137045210Y-96002420D01*
X136303849Y-95261059D01*
X136292313Y-95254759D01*
X136280031Y-95264382D01*
X136232089Y-95334662D01*
X136227004Y-95343613D01*
X136137338Y-95536783D01*
X136133775Y-95546470D01*
X136076864Y-95751681D01*
X136074933Y-95761800D01*
X136052302Y-95973574D01*
X136052050Y-95983863D01*
X126074341Y-95983863D01*
X126058781Y-95794604D01*
X126057096Y-95784424D01*
X126005214Y-95577875D01*
X126001894Y-95568124D01*
X125916972Y-95372814D01*
X125912105Y-95363739D01*
X125847063Y-95263197D01*
X125836377Y-95253995D01*
X125826812Y-95258398D01*
X125086022Y-95999188D01*
X125078408Y-96013132D01*
X124348356Y-96013132D01*
X124349592Y-96010868D01*
X124349461Y-96009035D01*
X124345210Y-96002420D01*
X123603849Y-95261059D01*
X123592313Y-95254759D01*
X123580031Y-95264382D01*
X123532089Y-95334662D01*
X123527004Y-95343613D01*
X123437338Y-95536783D01*
X123433775Y-95546470D01*
X123376864Y-95751681D01*
X123374933Y-95761800D01*
X123352302Y-95973574D01*
X123352050Y-95983863D01*
X69508500Y-95983863D01*
X69508500Y-93453695D01*
X106079251Y-93453695D01*
X106079548Y-93458848D01*
X106079548Y-93458851D01*
X106085011Y-93553590D01*
X106092110Y-93676715D01*
X106093247Y-93681761D01*
X106093248Y-93681767D01*
X106109739Y-93754939D01*
X106141222Y-93894639D01*
X106225266Y-94101616D01*
X106227965Y-94106020D01*
X106330099Y-94272688D01*
X106341987Y-94292088D01*
X106488250Y-94460938D01*
X106660126Y-94603632D01*
X106721447Y-94639465D01*
X106733955Y-94646774D01*
X106782679Y-94698412D01*
X106795750Y-94768195D01*
X106769019Y-94833967D01*
X106728562Y-94867327D01*
X106720457Y-94871546D01*
X106711738Y-94877036D01*
X106541433Y-95004905D01*
X106533726Y-95011748D01*
X106386590Y-95165717D01*
X106380104Y-95173727D01*
X106260098Y-95349649D01*
X106255000Y-95358623D01*
X106165338Y-95551783D01*
X106161775Y-95561470D01*
X106106389Y-95761183D01*
X106107912Y-95769607D01*
X106120292Y-95773000D01*
X108760344Y-95773000D01*
X108773875Y-95769027D01*
X108775180Y-95759947D01*
X108733214Y-95592875D01*
X108729894Y-95583124D01*
X108644972Y-95387814D01*
X108640105Y-95378739D01*
X108524426Y-95199926D01*
X108518136Y-95191757D01*
X108374806Y-95034240D01*
X108367273Y-95027215D01*
X108200139Y-94895222D01*
X108191556Y-94889520D01*
X108189576Y-94888427D01*
X123955223Y-94888427D01*
X123961968Y-94900758D01*
X124701188Y-95639978D01*
X124715132Y-95647592D01*
X124716965Y-95647461D01*
X124723580Y-95643210D01*
X125467389Y-94899401D01*
X125473382Y-94888427D01*
X136655223Y-94888427D01*
X136661968Y-94900758D01*
X137401188Y-95639978D01*
X137415132Y-95647592D01*
X137416965Y-95647461D01*
X137423580Y-95643210D01*
X138167389Y-94899401D01*
X138174410Y-94886544D01*
X138167611Y-94877213D01*
X138163554Y-94874518D01*
X137977117Y-94771599D01*
X137967705Y-94767369D01*
X137766959Y-94696280D01*
X137756989Y-94693646D01*
X137547327Y-94656301D01*
X137537073Y-94655331D01*
X137324116Y-94652728D01*
X137313832Y-94653448D01*
X137103321Y-94685661D01*
X137093293Y-94688050D01*
X136890868Y-94754212D01*
X136881359Y-94758209D01*
X136692466Y-94856540D01*
X136683734Y-94862039D01*
X136663677Y-94877099D01*
X136655223Y-94888427D01*
X125473382Y-94888427D01*
X125474410Y-94886544D01*
X125467611Y-94877213D01*
X125463554Y-94874518D01*
X125277117Y-94771599D01*
X125267705Y-94767369D01*
X125066959Y-94696280D01*
X125056989Y-94693646D01*
X124847327Y-94656301D01*
X124837073Y-94655331D01*
X124624116Y-94652728D01*
X124613832Y-94653448D01*
X124403321Y-94685661D01*
X124393293Y-94688050D01*
X124190868Y-94754212D01*
X124181359Y-94758209D01*
X123992466Y-94856540D01*
X123983734Y-94862039D01*
X123963677Y-94877099D01*
X123955223Y-94888427D01*
X108189576Y-94888427D01*
X108154602Y-94869120D01*
X108104631Y-94818687D01*
X108089859Y-94749245D01*
X108114975Y-94682839D01*
X108142327Y-94656232D01*
X108165833Y-94639465D01*
X108321860Y-94528173D01*
X108480096Y-94370489D01*
X108493891Y-94351292D01*
X108607435Y-94193277D01*
X108610453Y-94189077D01*
X108615437Y-94178994D01*
X108707136Y-93993453D01*
X108707137Y-93993451D01*
X108709430Y-93988811D01*
X108774370Y-93775069D01*
X108803529Y-93553590D01*
X108803611Y-93550240D01*
X108805074Y-93490365D01*
X108805074Y-93490361D01*
X108805156Y-93487000D01*
X108801185Y-93438695D01*
X221649251Y-93438695D01*
X221649548Y-93443848D01*
X221649548Y-93443851D01*
X221655876Y-93553590D01*
X221662110Y-93661715D01*
X221663247Y-93666761D01*
X221663248Y-93666767D01*
X221665490Y-93676715D01*
X221711222Y-93879639D01*
X221795266Y-94086616D01*
X221846019Y-94169438D01*
X221909291Y-94272688D01*
X221911987Y-94277088D01*
X222058250Y-94445938D01*
X222230126Y-94588632D01*
X222423000Y-94701338D01*
X222631692Y-94781030D01*
X222636760Y-94782061D01*
X222636763Y-94782062D01*
X222741604Y-94803392D01*
X222850597Y-94825567D01*
X222855772Y-94825757D01*
X222855774Y-94825757D01*
X223068673Y-94833564D01*
X223068677Y-94833564D01*
X223073837Y-94833753D01*
X223078957Y-94833097D01*
X223078959Y-94833097D01*
X223290288Y-94806025D01*
X223290289Y-94806025D01*
X223295416Y-94805368D01*
X223300366Y-94803883D01*
X223504429Y-94742661D01*
X223504434Y-94742659D01*
X223509384Y-94741174D01*
X223709994Y-94642896D01*
X223774544Y-94596853D01*
X224791977Y-94596853D01*
X224797258Y-94603907D01*
X224958756Y-94698279D01*
X224968042Y-94702729D01*
X225167001Y-94778703D01*
X225176899Y-94781579D01*
X225385595Y-94824038D01*
X225395823Y-94825257D01*
X225608650Y-94833062D01*
X225618936Y-94832595D01*
X225830185Y-94805534D01*
X225840262Y-94803392D01*
X226044255Y-94742191D01*
X226053842Y-94738433D01*
X226245098Y-94644738D01*
X226253944Y-94639465D01*
X226301247Y-94605723D01*
X226309648Y-94595023D01*
X226302660Y-94581870D01*
X225564812Y-93844022D01*
X225550868Y-93836408D01*
X225549035Y-93836539D01*
X225542420Y-93840790D01*
X224798737Y-94584473D01*
X224791977Y-94596853D01*
X223774544Y-94596853D01*
X223891860Y-94513173D01*
X224050096Y-94355489D01*
X224109594Y-94272689D01*
X224180453Y-94174077D01*
X224181640Y-94174930D01*
X224228960Y-94131362D01*
X224298897Y-94119145D01*
X224364338Y-94146678D01*
X224392166Y-94178512D01*
X224418459Y-94221419D01*
X224428916Y-94230880D01*
X224437694Y-94227096D01*
X225179978Y-93484812D01*
X225186356Y-93473132D01*
X225916408Y-93473132D01*
X225916539Y-93474965D01*
X225920790Y-93481580D01*
X226662474Y-94223264D01*
X226674484Y-94229823D01*
X226686223Y-94220855D01*
X226720022Y-94173819D01*
X226721277Y-94174721D01*
X226768391Y-94131355D01*
X226838330Y-94119148D01*
X226903767Y-94146691D01*
X226931580Y-94178513D01*
X226989287Y-94272683D01*
X226989291Y-94272688D01*
X226991987Y-94277088D01*
X227138250Y-94445938D01*
X227310126Y-94588632D01*
X227503000Y-94701338D01*
X227711692Y-94781030D01*
X227716760Y-94782061D01*
X227716763Y-94782062D01*
X227821604Y-94803392D01*
X227930597Y-94825567D01*
X227935772Y-94825757D01*
X227935774Y-94825757D01*
X228148673Y-94833564D01*
X228148677Y-94833564D01*
X228153837Y-94833753D01*
X228158957Y-94833097D01*
X228158959Y-94833097D01*
X228370288Y-94806025D01*
X228370289Y-94806025D01*
X228375416Y-94805368D01*
X228380366Y-94803883D01*
X228584429Y-94742661D01*
X228584434Y-94742659D01*
X228589384Y-94741174D01*
X228789994Y-94642896D01*
X228971860Y-94513173D01*
X229130096Y-94355489D01*
X229189594Y-94272689D01*
X229260453Y-94174077D01*
X229261776Y-94175028D01*
X229308645Y-94131857D01*
X229378580Y-94119625D01*
X229444026Y-94147144D01*
X229471875Y-94178994D01*
X229531987Y-94277088D01*
X229678250Y-94445938D01*
X229850126Y-94588632D01*
X230043000Y-94701338D01*
X230251692Y-94781030D01*
X230256760Y-94782061D01*
X230256763Y-94782062D01*
X230361604Y-94803392D01*
X230470597Y-94825567D01*
X230475772Y-94825757D01*
X230475774Y-94825757D01*
X230688673Y-94833564D01*
X230688677Y-94833564D01*
X230693837Y-94833753D01*
X230698957Y-94833097D01*
X230698959Y-94833097D01*
X230910288Y-94806025D01*
X230910289Y-94806025D01*
X230915416Y-94805368D01*
X230920366Y-94803883D01*
X231124429Y-94742661D01*
X231124434Y-94742659D01*
X231129384Y-94741174D01*
X231329994Y-94642896D01*
X231511860Y-94513173D01*
X231670096Y-94355489D01*
X231729594Y-94272689D01*
X231800453Y-94174077D01*
X231801776Y-94175028D01*
X231848645Y-94131857D01*
X231918580Y-94119625D01*
X231984026Y-94147144D01*
X232011875Y-94178994D01*
X232071987Y-94277088D01*
X232218250Y-94445938D01*
X232390126Y-94588632D01*
X232583000Y-94701338D01*
X232791692Y-94781030D01*
X232796760Y-94782061D01*
X232796763Y-94782062D01*
X232901604Y-94803392D01*
X233010597Y-94825567D01*
X233015772Y-94825757D01*
X233015774Y-94825757D01*
X233228673Y-94833564D01*
X233228677Y-94833564D01*
X233233837Y-94833753D01*
X233238957Y-94833097D01*
X233238959Y-94833097D01*
X233450288Y-94806025D01*
X233450289Y-94806025D01*
X233455416Y-94805368D01*
X233460366Y-94803883D01*
X233664429Y-94742661D01*
X233664434Y-94742659D01*
X233669384Y-94741174D01*
X233869994Y-94642896D01*
X234051860Y-94513173D01*
X234210096Y-94355489D01*
X234269594Y-94272689D01*
X234340453Y-94174077D01*
X234341776Y-94175028D01*
X234388645Y-94131857D01*
X234458580Y-94119625D01*
X234524026Y-94147144D01*
X234551875Y-94178994D01*
X234611987Y-94277088D01*
X234758250Y-94445938D01*
X234930126Y-94588632D01*
X235123000Y-94701338D01*
X235331692Y-94781030D01*
X235336760Y-94782061D01*
X235336763Y-94782062D01*
X235441604Y-94803392D01*
X235550597Y-94825567D01*
X235555772Y-94825757D01*
X235555774Y-94825757D01*
X235768673Y-94833564D01*
X235768677Y-94833564D01*
X235773837Y-94833753D01*
X235778957Y-94833097D01*
X235778959Y-94833097D01*
X235990288Y-94806025D01*
X235990289Y-94806025D01*
X235995416Y-94805368D01*
X236000366Y-94803883D01*
X236204429Y-94742661D01*
X236204434Y-94742659D01*
X236209384Y-94741174D01*
X236409994Y-94642896D01*
X236591860Y-94513173D01*
X236750096Y-94355489D01*
X236809594Y-94272689D01*
X236877435Y-94178277D01*
X236880453Y-94174077D01*
X236893995Y-94146678D01*
X236977136Y-93978453D01*
X236977137Y-93978451D01*
X236979430Y-93973811D01*
X237021176Y-93836408D01*
X237042865Y-93765023D01*
X237042865Y-93765021D01*
X237044370Y-93760069D01*
X237073529Y-93538590D01*
X237074843Y-93484812D01*
X237075074Y-93475365D01*
X237075074Y-93475361D01*
X237075156Y-93472000D01*
X237056852Y-93249361D01*
X237002431Y-93032702D01*
X236913354Y-92827840D01*
X236792014Y-92640277D01*
X236641670Y-92475051D01*
X236637619Y-92471852D01*
X236637615Y-92471848D01*
X236470414Y-92339800D01*
X236470410Y-92339798D01*
X236466359Y-92336598D01*
X236452228Y-92328797D01*
X236373916Y-92285567D01*
X236270789Y-92228638D01*
X236265920Y-92226914D01*
X236265916Y-92226912D01*
X236065087Y-92155795D01*
X236065083Y-92155794D01*
X236060212Y-92154069D01*
X236055119Y-92153162D01*
X236055116Y-92153161D01*
X235845373Y-92115800D01*
X235845367Y-92115799D01*
X235840284Y-92114894D01*
X235766452Y-92113992D01*
X235622081Y-92112228D01*
X235622079Y-92112228D01*
X235616911Y-92112165D01*
X235396091Y-92145955D01*
X235183756Y-92215357D01*
X235138909Y-92238703D01*
X235049480Y-92285257D01*
X234985607Y-92318507D01*
X234981474Y-92321610D01*
X234981471Y-92321612D01*
X234811100Y-92449530D01*
X234806965Y-92452635D01*
X234652629Y-92614138D01*
X234545201Y-92771621D01*
X234490293Y-92816621D01*
X234419768Y-92824792D01*
X234356021Y-92793538D01*
X234335324Y-92769054D01*
X234254822Y-92644617D01*
X234254820Y-92644614D01*
X234252014Y-92640277D01*
X234101670Y-92475051D01*
X234097619Y-92471852D01*
X234097615Y-92471848D01*
X233930414Y-92339800D01*
X233930410Y-92339798D01*
X233926359Y-92336598D01*
X233912228Y-92328797D01*
X233833916Y-92285567D01*
X233730789Y-92228638D01*
X233725920Y-92226914D01*
X233725916Y-92226912D01*
X233525087Y-92155795D01*
X233525083Y-92155794D01*
X233520212Y-92154069D01*
X233515119Y-92153162D01*
X233515116Y-92153161D01*
X233305373Y-92115800D01*
X233305367Y-92115799D01*
X233300284Y-92114894D01*
X233226452Y-92113992D01*
X233082081Y-92112228D01*
X233082079Y-92112228D01*
X233076911Y-92112165D01*
X232856091Y-92145955D01*
X232643756Y-92215357D01*
X232598909Y-92238703D01*
X232509480Y-92285257D01*
X232445607Y-92318507D01*
X232441474Y-92321610D01*
X232441471Y-92321612D01*
X232271100Y-92449530D01*
X232266965Y-92452635D01*
X232112629Y-92614138D01*
X232005201Y-92771621D01*
X231950293Y-92816621D01*
X231879768Y-92824792D01*
X231816021Y-92793538D01*
X231795324Y-92769054D01*
X231714822Y-92644617D01*
X231714820Y-92644614D01*
X231712014Y-92640277D01*
X231561670Y-92475051D01*
X231557619Y-92471852D01*
X231557615Y-92471848D01*
X231390414Y-92339800D01*
X231390410Y-92339798D01*
X231386359Y-92336598D01*
X231372228Y-92328797D01*
X231293916Y-92285567D01*
X231190789Y-92228638D01*
X231185920Y-92226914D01*
X231185916Y-92226912D01*
X230985087Y-92155795D01*
X230985083Y-92155794D01*
X230980212Y-92154069D01*
X230975119Y-92153162D01*
X230975116Y-92153161D01*
X230765373Y-92115800D01*
X230765367Y-92115799D01*
X230760284Y-92114894D01*
X230686452Y-92113992D01*
X230542081Y-92112228D01*
X230542079Y-92112228D01*
X230536911Y-92112165D01*
X230316091Y-92145955D01*
X230103756Y-92215357D01*
X230058909Y-92238703D01*
X229969480Y-92285257D01*
X229905607Y-92318507D01*
X229901474Y-92321610D01*
X229901471Y-92321612D01*
X229731100Y-92449530D01*
X229726965Y-92452635D01*
X229572629Y-92614138D01*
X229465201Y-92771621D01*
X229410293Y-92816621D01*
X229339768Y-92824792D01*
X229276021Y-92793538D01*
X229255324Y-92769054D01*
X229174822Y-92644617D01*
X229174820Y-92644614D01*
X229172014Y-92640277D01*
X229021670Y-92475051D01*
X229017619Y-92471852D01*
X229017615Y-92471848D01*
X228850414Y-92339800D01*
X228850410Y-92339798D01*
X228846359Y-92336598D01*
X228832228Y-92328797D01*
X228753916Y-92285567D01*
X228650789Y-92228638D01*
X228645920Y-92226914D01*
X228645916Y-92226912D01*
X228445087Y-92155795D01*
X228445083Y-92155794D01*
X228440212Y-92154069D01*
X228435119Y-92153162D01*
X228435116Y-92153161D01*
X228225373Y-92115800D01*
X228225367Y-92115799D01*
X228220284Y-92114894D01*
X228146452Y-92113992D01*
X228002081Y-92112228D01*
X228002079Y-92112228D01*
X227996911Y-92112165D01*
X227776091Y-92145955D01*
X227563756Y-92215357D01*
X227518909Y-92238703D01*
X227429480Y-92285257D01*
X227365607Y-92318507D01*
X227361474Y-92321610D01*
X227361471Y-92321612D01*
X227191100Y-92449530D01*
X227186965Y-92452635D01*
X227032629Y-92614138D01*
X226925204Y-92771618D01*
X226924898Y-92772066D01*
X226869987Y-92817069D01*
X226799462Y-92825240D01*
X226735715Y-92793986D01*
X226715017Y-92769501D01*
X226685062Y-92723197D01*
X226674377Y-92713995D01*
X226664812Y-92718398D01*
X225924022Y-93459188D01*
X225916408Y-93473132D01*
X225186356Y-93473132D01*
X225187592Y-93470868D01*
X225187461Y-93469035D01*
X225183210Y-93462420D01*
X224441849Y-92721059D01*
X224430313Y-92714759D01*
X224418031Y-92724382D01*
X224385499Y-92772072D01*
X224330587Y-92817075D01*
X224260063Y-92825246D01*
X224196316Y-92793992D01*
X224175618Y-92769508D01*
X224094822Y-92644617D01*
X224094820Y-92644614D01*
X224092014Y-92640277D01*
X223941670Y-92475051D01*
X223937619Y-92471852D01*
X223937615Y-92471848D01*
X223781338Y-92348427D01*
X224793223Y-92348427D01*
X224799968Y-92360758D01*
X225539188Y-93099978D01*
X225553132Y-93107592D01*
X225554965Y-93107461D01*
X225561580Y-93103210D01*
X226305389Y-92359401D01*
X226312410Y-92346544D01*
X226305611Y-92337213D01*
X226301554Y-92334518D01*
X226115117Y-92231599D01*
X226105705Y-92227369D01*
X225904959Y-92156280D01*
X225894989Y-92153646D01*
X225685327Y-92116301D01*
X225675073Y-92115331D01*
X225462116Y-92112728D01*
X225451832Y-92113448D01*
X225241321Y-92145661D01*
X225231293Y-92148050D01*
X225028868Y-92214212D01*
X225019359Y-92218209D01*
X224830466Y-92316540D01*
X224821734Y-92322039D01*
X224801677Y-92337099D01*
X224793223Y-92348427D01*
X223781338Y-92348427D01*
X223770414Y-92339800D01*
X223770410Y-92339798D01*
X223766359Y-92336598D01*
X223752228Y-92328797D01*
X223673916Y-92285567D01*
X223570789Y-92228638D01*
X223565920Y-92226914D01*
X223565916Y-92226912D01*
X223365087Y-92155795D01*
X223365083Y-92155794D01*
X223360212Y-92154069D01*
X223355119Y-92153162D01*
X223355116Y-92153161D01*
X223145373Y-92115800D01*
X223145367Y-92115799D01*
X223140284Y-92114894D01*
X223066452Y-92113992D01*
X222922081Y-92112228D01*
X222922079Y-92112228D01*
X222916911Y-92112165D01*
X222696091Y-92145955D01*
X222483756Y-92215357D01*
X222438909Y-92238703D01*
X222349480Y-92285257D01*
X222285607Y-92318507D01*
X222281474Y-92321610D01*
X222281471Y-92321612D01*
X222111100Y-92449530D01*
X222106965Y-92452635D01*
X221952629Y-92614138D01*
X221826743Y-92798680D01*
X221732688Y-93001305D01*
X221672989Y-93216570D01*
X221649251Y-93438695D01*
X108801185Y-93438695D01*
X108786852Y-93264361D01*
X108732431Y-93047702D01*
X108643354Y-92842840D01*
X108566720Y-92724382D01*
X108524822Y-92659617D01*
X108524820Y-92659614D01*
X108522014Y-92655277D01*
X108371670Y-92490051D01*
X108367619Y-92486852D01*
X108367615Y-92486848D01*
X108200414Y-92354800D01*
X108200410Y-92354798D01*
X108196359Y-92351598D01*
X108155053Y-92328796D01*
X108105084Y-92278364D01*
X108090312Y-92208921D01*
X108115428Y-92142516D01*
X108142780Y-92115909D01*
X108186603Y-92084650D01*
X108321860Y-91988173D01*
X108480096Y-91830489D01*
X108493891Y-91811292D01*
X108607435Y-91653277D01*
X108610453Y-91649077D01*
X108617867Y-91634077D01*
X108707136Y-91453453D01*
X108707137Y-91453451D01*
X108709430Y-91448811D01*
X108774370Y-91235069D01*
X108803529Y-91013590D01*
X108803611Y-91010240D01*
X108805074Y-90950365D01*
X108805074Y-90950361D01*
X108805156Y-90947000D01*
X108801185Y-90898695D01*
X123351251Y-90898695D01*
X123351548Y-90903848D01*
X123351548Y-90903851D01*
X123357876Y-91013590D01*
X123364110Y-91121715D01*
X123365247Y-91126761D01*
X123365248Y-91126767D01*
X123385119Y-91214939D01*
X123413222Y-91339639D01*
X123497266Y-91546616D01*
X123613987Y-91737088D01*
X123760250Y-91905938D01*
X123932126Y-92048632D01*
X124125000Y-92161338D01*
X124333692Y-92241030D01*
X124338760Y-92242061D01*
X124338763Y-92242062D01*
X124443604Y-92263392D01*
X124552597Y-92285567D01*
X124557772Y-92285757D01*
X124557774Y-92285757D01*
X124770673Y-92293564D01*
X124770677Y-92293564D01*
X124775837Y-92293753D01*
X124780957Y-92293097D01*
X124780959Y-92293097D01*
X124992288Y-92266025D01*
X124992289Y-92266025D01*
X124997416Y-92265368D01*
X125002366Y-92263883D01*
X125206429Y-92202661D01*
X125206434Y-92202659D01*
X125211384Y-92201174D01*
X125411994Y-92102896D01*
X125593860Y-91973173D01*
X125752096Y-91815489D01*
X125811594Y-91732689D01*
X125879435Y-91638277D01*
X125882453Y-91634077D01*
X125884874Y-91629180D01*
X125979136Y-91438453D01*
X125979137Y-91438451D01*
X125981430Y-91433811D01*
X126023176Y-91296408D01*
X126044865Y-91225023D01*
X126044865Y-91225021D01*
X126046370Y-91220069D01*
X126075529Y-90998590D01*
X126076843Y-90944812D01*
X126077074Y-90935365D01*
X126077074Y-90935361D01*
X126077156Y-90932000D01*
X126074418Y-90898695D01*
X136051251Y-90898695D01*
X136051548Y-90903848D01*
X136051548Y-90903851D01*
X136057876Y-91013590D01*
X136064110Y-91121715D01*
X136065247Y-91126761D01*
X136065248Y-91126767D01*
X136085119Y-91214939D01*
X136113222Y-91339639D01*
X136197266Y-91546616D01*
X136313987Y-91737088D01*
X136460250Y-91905938D01*
X136632126Y-92048632D01*
X136825000Y-92161338D01*
X137033692Y-92241030D01*
X137038760Y-92242061D01*
X137038763Y-92242062D01*
X137143604Y-92263392D01*
X137252597Y-92285567D01*
X137257772Y-92285757D01*
X137257774Y-92285757D01*
X137470673Y-92293564D01*
X137470677Y-92293564D01*
X137475837Y-92293753D01*
X137480957Y-92293097D01*
X137480959Y-92293097D01*
X137692288Y-92266025D01*
X137692289Y-92266025D01*
X137697416Y-92265368D01*
X137702366Y-92263883D01*
X137906429Y-92202661D01*
X137906434Y-92202659D01*
X137911384Y-92201174D01*
X138111994Y-92102896D01*
X138176544Y-92056853D01*
X139193977Y-92056853D01*
X139199258Y-92063907D01*
X139360756Y-92158279D01*
X139370042Y-92162729D01*
X139569001Y-92238703D01*
X139578899Y-92241579D01*
X139787595Y-92284038D01*
X139797823Y-92285257D01*
X140010650Y-92293062D01*
X140020936Y-92292595D01*
X140232185Y-92265534D01*
X140242262Y-92263392D01*
X140446255Y-92202191D01*
X140455842Y-92198433D01*
X140647098Y-92104738D01*
X140655944Y-92099465D01*
X140703247Y-92065723D01*
X140710211Y-92056853D01*
X151893977Y-92056853D01*
X151899258Y-92063907D01*
X152060756Y-92158279D01*
X152070042Y-92162729D01*
X152269001Y-92238703D01*
X152278899Y-92241579D01*
X152487595Y-92284038D01*
X152497823Y-92285257D01*
X152710650Y-92293062D01*
X152720936Y-92292595D01*
X152932185Y-92265534D01*
X152942262Y-92263392D01*
X153146255Y-92202191D01*
X153155842Y-92198433D01*
X153347098Y-92104738D01*
X153355944Y-92099465D01*
X153403247Y-92065723D01*
X153411648Y-92055023D01*
X153404660Y-92041870D01*
X152666812Y-91304022D01*
X152652868Y-91296408D01*
X152651035Y-91296539D01*
X152644420Y-91300790D01*
X151900737Y-92044473D01*
X151893977Y-92056853D01*
X140710211Y-92056853D01*
X140711648Y-92055023D01*
X140704660Y-92041870D01*
X139966812Y-91304022D01*
X139952868Y-91296408D01*
X139951035Y-91296539D01*
X139944420Y-91300790D01*
X139200737Y-92044473D01*
X139193977Y-92056853D01*
X138176544Y-92056853D01*
X138293860Y-91973173D01*
X138452096Y-91815489D01*
X138511594Y-91732689D01*
X138582453Y-91634077D01*
X138583640Y-91634930D01*
X138630960Y-91591362D01*
X138700897Y-91579145D01*
X138766338Y-91606678D01*
X138794166Y-91638512D01*
X138820459Y-91681419D01*
X138830916Y-91690880D01*
X138839694Y-91687096D01*
X139581978Y-90944812D01*
X139588356Y-90933132D01*
X140318408Y-90933132D01*
X140318539Y-90934965D01*
X140322790Y-90941580D01*
X141064474Y-91683264D01*
X141076484Y-91689823D01*
X141088223Y-91680855D01*
X141119004Y-91638019D01*
X141124315Y-91629180D01*
X141218670Y-91438267D01*
X141222469Y-91428672D01*
X141284376Y-91224915D01*
X141286555Y-91214834D01*
X141314590Y-91001887D01*
X141315109Y-90995212D01*
X141316572Y-90935364D01*
X141316378Y-90928646D01*
X141314341Y-90903863D01*
X151292050Y-90903863D01*
X151304309Y-91116477D01*
X151305745Y-91126697D01*
X151352565Y-91334446D01*
X151355645Y-91344275D01*
X151435770Y-91541603D01*
X151440413Y-91550794D01*
X151520460Y-91681420D01*
X151530916Y-91690880D01*
X151539694Y-91687096D01*
X152281978Y-90944812D01*
X152288356Y-90933132D01*
X153018408Y-90933132D01*
X153018539Y-90934965D01*
X153022790Y-90941580D01*
X153764474Y-91683264D01*
X153776484Y-91689823D01*
X153788223Y-91680855D01*
X153819004Y-91638019D01*
X153824315Y-91629180D01*
X153918670Y-91438267D01*
X153922469Y-91428672D01*
X153984376Y-91224915D01*
X153986555Y-91214834D01*
X154014590Y-91001887D01*
X154015109Y-90995212D01*
X154016572Y-90935364D01*
X154016378Y-90928646D01*
X153998781Y-90714604D01*
X153997096Y-90704424D01*
X153945214Y-90497875D01*
X153941894Y-90488124D01*
X153856972Y-90292814D01*
X153852105Y-90283739D01*
X153787063Y-90183197D01*
X153776377Y-90173995D01*
X153766812Y-90178398D01*
X153026022Y-90919188D01*
X153018408Y-90933132D01*
X152288356Y-90933132D01*
X152289592Y-90930868D01*
X152289461Y-90929035D01*
X152285210Y-90922420D01*
X151543849Y-90181059D01*
X151532313Y-90174759D01*
X151520031Y-90184382D01*
X151472089Y-90254662D01*
X151467004Y-90263613D01*
X151377338Y-90456783D01*
X151373775Y-90466470D01*
X151316864Y-90671681D01*
X151314933Y-90681800D01*
X151292302Y-90893574D01*
X151292050Y-90903863D01*
X141314341Y-90903863D01*
X141298781Y-90714604D01*
X141297096Y-90704424D01*
X141245214Y-90497875D01*
X141241894Y-90488124D01*
X141156972Y-90292814D01*
X141152105Y-90283739D01*
X141087063Y-90183197D01*
X141076377Y-90173995D01*
X141066812Y-90178398D01*
X140326022Y-90919188D01*
X140318408Y-90933132D01*
X139588356Y-90933132D01*
X139589592Y-90930868D01*
X139589461Y-90929035D01*
X139585210Y-90922420D01*
X138843849Y-90181059D01*
X138832313Y-90174759D01*
X138820031Y-90184382D01*
X138787499Y-90232072D01*
X138732587Y-90277075D01*
X138662063Y-90285246D01*
X138598316Y-90253992D01*
X138577618Y-90229508D01*
X138496822Y-90104617D01*
X138496820Y-90104614D01*
X138494014Y-90100277D01*
X138343670Y-89935051D01*
X138339619Y-89931852D01*
X138339615Y-89931848D01*
X138183338Y-89808427D01*
X139195223Y-89808427D01*
X139201968Y-89820758D01*
X139941188Y-90559978D01*
X139955132Y-90567592D01*
X139956965Y-90567461D01*
X139963580Y-90563210D01*
X140707389Y-89819401D01*
X140713382Y-89808427D01*
X151895223Y-89808427D01*
X151901968Y-89820758D01*
X152641188Y-90559978D01*
X152655132Y-90567592D01*
X152656965Y-90567461D01*
X152663580Y-90563210D01*
X153407389Y-89819401D01*
X153414410Y-89806544D01*
X153407611Y-89797213D01*
X153403554Y-89794518D01*
X153217117Y-89691599D01*
X153207705Y-89687369D01*
X153006959Y-89616280D01*
X152996989Y-89613646D01*
X152787327Y-89576301D01*
X152777073Y-89575331D01*
X152564116Y-89572728D01*
X152553832Y-89573448D01*
X152343321Y-89605661D01*
X152333293Y-89608050D01*
X152130868Y-89674212D01*
X152121359Y-89678209D01*
X151932466Y-89776540D01*
X151923734Y-89782039D01*
X151903677Y-89797099D01*
X151895223Y-89808427D01*
X140713382Y-89808427D01*
X140714410Y-89806544D01*
X140707611Y-89797213D01*
X140703554Y-89794518D01*
X140517117Y-89691599D01*
X140507705Y-89687369D01*
X140306959Y-89616280D01*
X140296989Y-89613646D01*
X140087327Y-89576301D01*
X140077073Y-89575331D01*
X139864116Y-89572728D01*
X139853832Y-89573448D01*
X139643321Y-89605661D01*
X139633293Y-89608050D01*
X139430868Y-89674212D01*
X139421359Y-89678209D01*
X139232466Y-89776540D01*
X139223734Y-89782039D01*
X139203677Y-89797099D01*
X139195223Y-89808427D01*
X138183338Y-89808427D01*
X138172414Y-89799800D01*
X138172410Y-89799798D01*
X138168359Y-89796598D01*
X138154228Y-89788797D01*
X138090593Y-89753669D01*
X137972789Y-89688638D01*
X137967920Y-89686914D01*
X137967916Y-89686912D01*
X137767087Y-89615795D01*
X137767083Y-89615794D01*
X137762212Y-89614069D01*
X137757119Y-89613162D01*
X137757116Y-89613161D01*
X137547373Y-89575800D01*
X137547367Y-89575799D01*
X137542284Y-89574894D01*
X137468452Y-89573992D01*
X137324081Y-89572228D01*
X137324079Y-89572228D01*
X137318911Y-89572165D01*
X137098091Y-89605955D01*
X136885756Y-89675357D01*
X136687607Y-89778507D01*
X136683474Y-89781610D01*
X136683471Y-89781612D01*
X136513100Y-89909530D01*
X136508965Y-89912635D01*
X136354629Y-90074138D01*
X136228743Y-90258680D01*
X136134688Y-90461305D01*
X136074989Y-90676570D01*
X136051251Y-90898695D01*
X126074418Y-90898695D01*
X126058852Y-90709361D01*
X126004431Y-90492702D01*
X125915354Y-90287840D01*
X125794014Y-90100277D01*
X125643670Y-89935051D01*
X125639619Y-89931852D01*
X125639615Y-89931848D01*
X125472414Y-89799800D01*
X125472410Y-89799798D01*
X125468359Y-89796598D01*
X125454228Y-89788797D01*
X125390593Y-89753669D01*
X125272789Y-89688638D01*
X125267920Y-89686914D01*
X125267916Y-89686912D01*
X125067087Y-89615795D01*
X125067083Y-89615794D01*
X125062212Y-89614069D01*
X125057119Y-89613162D01*
X125057116Y-89613161D01*
X124847373Y-89575800D01*
X124847367Y-89575799D01*
X124842284Y-89574894D01*
X124768452Y-89573992D01*
X124624081Y-89572228D01*
X124624079Y-89572228D01*
X124618911Y-89572165D01*
X124398091Y-89605955D01*
X124185756Y-89675357D01*
X123987607Y-89778507D01*
X123983474Y-89781610D01*
X123983471Y-89781612D01*
X123813100Y-89909530D01*
X123808965Y-89912635D01*
X123654629Y-90074138D01*
X123528743Y-90258680D01*
X123434688Y-90461305D01*
X123374989Y-90676570D01*
X123351251Y-90898695D01*
X108801185Y-90898695D01*
X108786852Y-90724361D01*
X108732431Y-90507702D01*
X108643354Y-90302840D01*
X108566720Y-90184382D01*
X108524822Y-90119617D01*
X108524820Y-90119614D01*
X108522014Y-90115277D01*
X108371670Y-89950051D01*
X108367619Y-89946852D01*
X108367615Y-89946848D01*
X108200414Y-89814800D01*
X108200410Y-89814798D01*
X108196359Y-89811598D01*
X108155053Y-89788796D01*
X108105084Y-89738364D01*
X108090312Y-89668921D01*
X108115428Y-89602516D01*
X108142780Y-89575909D01*
X108186603Y-89544650D01*
X108321860Y-89448173D01*
X108480096Y-89290489D01*
X108539594Y-89207689D01*
X108607435Y-89113277D01*
X108610453Y-89109077D01*
X108709430Y-88908811D01*
X108774370Y-88695069D01*
X108803529Y-88473590D01*
X108805156Y-88407000D01*
X108786852Y-88184361D01*
X108732431Y-87967702D01*
X108643354Y-87762840D01*
X108522014Y-87575277D01*
X108371670Y-87410051D01*
X108367619Y-87406852D01*
X108367615Y-87406848D01*
X108200414Y-87274800D01*
X108200410Y-87274798D01*
X108196359Y-87271598D01*
X108155053Y-87248796D01*
X108105084Y-87198364D01*
X108090312Y-87128921D01*
X108115428Y-87062516D01*
X108142780Y-87035909D01*
X108186603Y-87004650D01*
X108321860Y-86908173D01*
X108480096Y-86750489D01*
X108489670Y-86737166D01*
X108607435Y-86573277D01*
X108610453Y-86569077D01*
X108620006Y-86549749D01*
X108707136Y-86373453D01*
X108707137Y-86373451D01*
X108709430Y-86368811D01*
X108774370Y-86155069D01*
X108803529Y-85933590D01*
X108805156Y-85867000D01*
X108786852Y-85644361D01*
X108732431Y-85427702D01*
X108643354Y-85222840D01*
X108603906Y-85161862D01*
X108524822Y-85039617D01*
X108524820Y-85039614D01*
X108522014Y-85035277D01*
X108371670Y-84870051D01*
X108367619Y-84866852D01*
X108367615Y-84866848D01*
X108200414Y-84734800D01*
X108200410Y-84734798D01*
X108196359Y-84731598D01*
X108155053Y-84708796D01*
X108105084Y-84658364D01*
X108090312Y-84588921D01*
X108115428Y-84522516D01*
X108142780Y-84495909D01*
X108186603Y-84464650D01*
X108321860Y-84368173D01*
X108480096Y-84210489D01*
X108539594Y-84127689D01*
X108607435Y-84033277D01*
X108610453Y-84029077D01*
X108615914Y-84018029D01*
X108707136Y-83833453D01*
X108707137Y-83833451D01*
X108709430Y-83828811D01*
X108774370Y-83615069D01*
X108803529Y-83393590D01*
X108805156Y-83327000D01*
X108786852Y-83104361D01*
X108732431Y-82887702D01*
X108643354Y-82682840D01*
X108566720Y-82564382D01*
X108524822Y-82499617D01*
X108524820Y-82499614D01*
X108522014Y-82495277D01*
X108371670Y-82330051D01*
X108367619Y-82326852D01*
X108367615Y-82326848D01*
X108200414Y-82194800D01*
X108200410Y-82194798D01*
X108196359Y-82191598D01*
X108155053Y-82168796D01*
X108105084Y-82118364D01*
X108090312Y-82048921D01*
X108115428Y-81982516D01*
X108142780Y-81955909D01*
X108186603Y-81924650D01*
X108321860Y-81828173D01*
X108480096Y-81670489D01*
X108493891Y-81651292D01*
X108607435Y-81493277D01*
X108610453Y-81489077D01*
X108612746Y-81484437D01*
X108614446Y-81481608D01*
X108666674Y-81433518D01*
X108722451Y-81420500D01*
X116769406Y-81420500D01*
X116837527Y-81440502D01*
X116884020Y-81494158D01*
X116894124Y-81564432D01*
X116864630Y-81629012D01*
X116858502Y-81635594D01*
X114997618Y-83496477D01*
X113297500Y-85196595D01*
X113235188Y-85230621D01*
X113208405Y-85233500D01*
X111183200Y-85233500D01*
X111115079Y-85213498D01*
X111095853Y-85197157D01*
X111095580Y-85197460D01*
X111090668Y-85193037D01*
X111086253Y-85188134D01*
X110931752Y-85075882D01*
X110925724Y-85073198D01*
X110925722Y-85073197D01*
X110763319Y-85000891D01*
X110763318Y-85000891D01*
X110757288Y-84998206D01*
X110663888Y-84978353D01*
X110576944Y-84959872D01*
X110576939Y-84959872D01*
X110570487Y-84958500D01*
X110379513Y-84958500D01*
X110373061Y-84959872D01*
X110373056Y-84959872D01*
X110286112Y-84978353D01*
X110192712Y-84998206D01*
X110186682Y-85000891D01*
X110186681Y-85000891D01*
X110024278Y-85073197D01*
X110024276Y-85073198D01*
X110018248Y-85075882D01*
X109863747Y-85188134D01*
X109859326Y-85193044D01*
X109859325Y-85193045D01*
X109825492Y-85230621D01*
X109735960Y-85330056D01*
X109640473Y-85495444D01*
X109581458Y-85677072D01*
X109561496Y-85867000D01*
X109562186Y-85873565D01*
X109568844Y-85936908D01*
X109581458Y-86056928D01*
X109640473Y-86238556D01*
X109643776Y-86244278D01*
X109643777Y-86244279D01*
X109664069Y-86279425D01*
X109735960Y-86403944D01*
X109740378Y-86408851D01*
X109740379Y-86408852D01*
X109822452Y-86500003D01*
X109863747Y-86545866D01*
X110018248Y-86658118D01*
X110024276Y-86660802D01*
X110024278Y-86660803D01*
X110049625Y-86672088D01*
X110192712Y-86735794D01*
X110279009Y-86754137D01*
X110373056Y-86774128D01*
X110373061Y-86774128D01*
X110379513Y-86775500D01*
X110570487Y-86775500D01*
X110576939Y-86774128D01*
X110576944Y-86774128D01*
X110670991Y-86754137D01*
X110757288Y-86735794D01*
X110900375Y-86672088D01*
X110925722Y-86660803D01*
X110925724Y-86660802D01*
X110931752Y-86658118D01*
X111086253Y-86545866D01*
X111090668Y-86540963D01*
X111095580Y-86536540D01*
X111096705Y-86537789D01*
X111150014Y-86504949D01*
X111183200Y-86500500D01*
X113444233Y-86500500D01*
X113455416Y-86501027D01*
X113462909Y-86502702D01*
X113470835Y-86502453D01*
X113470836Y-86502453D01*
X113530986Y-86500562D01*
X113534945Y-86500500D01*
X113562856Y-86500500D01*
X113566791Y-86500003D01*
X113566856Y-86499995D01*
X113578693Y-86499062D01*
X113610951Y-86498048D01*
X113614970Y-86497922D01*
X113622889Y-86497673D01*
X113642343Y-86492021D01*
X113661700Y-86488013D01*
X113673930Y-86486468D01*
X113673931Y-86486468D01*
X113681797Y-86485474D01*
X113689168Y-86482555D01*
X113689170Y-86482555D01*
X113722912Y-86469196D01*
X113734142Y-86465351D01*
X113768983Y-86455229D01*
X113768984Y-86455229D01*
X113776593Y-86453018D01*
X113783412Y-86448985D01*
X113783417Y-86448983D01*
X113794028Y-86442707D01*
X113811776Y-86434012D01*
X113830617Y-86426552D01*
X113866387Y-86400564D01*
X113876307Y-86394048D01*
X113907535Y-86375580D01*
X113907538Y-86375578D01*
X113914362Y-86371542D01*
X113928683Y-86357221D01*
X113943717Y-86344380D01*
X113953694Y-86337131D01*
X113960107Y-86332472D01*
X113988298Y-86298395D01*
X113996288Y-86289616D01*
X115849051Y-84436853D01*
X123953977Y-84436853D01*
X123959258Y-84443907D01*
X124120756Y-84538279D01*
X124130042Y-84542729D01*
X124329001Y-84618703D01*
X124338899Y-84621579D01*
X124547595Y-84664038D01*
X124557823Y-84665257D01*
X124770650Y-84673062D01*
X124780936Y-84672595D01*
X124992185Y-84645534D01*
X125002262Y-84643392D01*
X125206255Y-84582191D01*
X125215842Y-84578433D01*
X125407098Y-84484738D01*
X125415944Y-84479465D01*
X125463247Y-84445723D01*
X125470211Y-84436853D01*
X136653977Y-84436853D01*
X136659258Y-84443907D01*
X136820756Y-84538279D01*
X136830042Y-84542729D01*
X137029001Y-84618703D01*
X137038899Y-84621579D01*
X137247595Y-84664038D01*
X137257823Y-84665257D01*
X137470650Y-84673062D01*
X137480936Y-84672595D01*
X137692185Y-84645534D01*
X137702262Y-84643392D01*
X137906255Y-84582191D01*
X137915842Y-84578433D01*
X138107098Y-84484738D01*
X138115944Y-84479465D01*
X138163247Y-84445723D01*
X138170211Y-84436853D01*
X139193977Y-84436853D01*
X139199258Y-84443907D01*
X139360756Y-84538279D01*
X139370042Y-84542729D01*
X139569001Y-84618703D01*
X139578899Y-84621579D01*
X139787595Y-84664038D01*
X139797823Y-84665257D01*
X140010650Y-84673062D01*
X140020936Y-84672595D01*
X140232185Y-84645534D01*
X140242262Y-84643392D01*
X140446255Y-84582191D01*
X140455842Y-84578433D01*
X140647098Y-84484738D01*
X140655944Y-84479465D01*
X140703247Y-84445723D01*
X140710211Y-84436853D01*
X151893977Y-84436853D01*
X151899258Y-84443907D01*
X152060756Y-84538279D01*
X152070042Y-84542729D01*
X152269001Y-84618703D01*
X152278899Y-84621579D01*
X152487595Y-84664038D01*
X152497823Y-84665257D01*
X152710650Y-84673062D01*
X152720936Y-84672595D01*
X152932185Y-84645534D01*
X152942262Y-84643392D01*
X153146255Y-84582191D01*
X153155842Y-84578433D01*
X153347098Y-84484738D01*
X153355944Y-84479465D01*
X153403247Y-84445723D01*
X153411648Y-84435023D01*
X153404660Y-84421870D01*
X152666812Y-83684022D01*
X152652868Y-83676408D01*
X152651035Y-83676539D01*
X152644420Y-83680790D01*
X151900737Y-84424473D01*
X151893977Y-84436853D01*
X140710211Y-84436853D01*
X140711648Y-84435023D01*
X140704660Y-84421870D01*
X139966812Y-83684022D01*
X139952868Y-83676408D01*
X139951035Y-83676539D01*
X139944420Y-83680790D01*
X139200737Y-84424473D01*
X139193977Y-84436853D01*
X138170211Y-84436853D01*
X138171648Y-84435023D01*
X138164660Y-84421870D01*
X137426812Y-83684022D01*
X137412868Y-83676408D01*
X137411035Y-83676539D01*
X137404420Y-83680790D01*
X136660737Y-84424473D01*
X136653977Y-84436853D01*
X125470211Y-84436853D01*
X125471648Y-84435023D01*
X125464660Y-84421870D01*
X124726812Y-83684022D01*
X124712868Y-83676408D01*
X124711035Y-83676539D01*
X124704420Y-83680790D01*
X123960737Y-84424473D01*
X123953977Y-84436853D01*
X115849051Y-84436853D01*
X117002041Y-83283863D01*
X123352050Y-83283863D01*
X123364309Y-83496477D01*
X123365745Y-83506697D01*
X123412565Y-83714446D01*
X123415645Y-83724275D01*
X123495770Y-83921603D01*
X123500413Y-83930794D01*
X123580460Y-84061420D01*
X123590916Y-84070880D01*
X123599694Y-84067096D01*
X124341978Y-83324812D01*
X124348356Y-83313132D01*
X125078408Y-83313132D01*
X125078539Y-83314965D01*
X125082790Y-83321580D01*
X125824474Y-84063264D01*
X125836484Y-84069823D01*
X125848223Y-84060855D01*
X125879004Y-84018019D01*
X125884315Y-84009180D01*
X125978670Y-83818267D01*
X125982469Y-83808672D01*
X126044376Y-83604915D01*
X126046555Y-83594834D01*
X126074590Y-83381887D01*
X126075109Y-83375212D01*
X126076572Y-83315364D01*
X126076378Y-83308646D01*
X126074341Y-83283863D01*
X136052050Y-83283863D01*
X136064309Y-83496477D01*
X136065745Y-83506697D01*
X136112565Y-83714446D01*
X136115645Y-83724275D01*
X136195770Y-83921603D01*
X136200413Y-83930794D01*
X136280460Y-84061420D01*
X136290916Y-84070880D01*
X136299694Y-84067096D01*
X137041978Y-83324812D01*
X137048356Y-83313132D01*
X137778408Y-83313132D01*
X137778539Y-83314965D01*
X137782790Y-83321580D01*
X138524474Y-84063264D01*
X138536484Y-84069823D01*
X138548223Y-84060855D01*
X138582022Y-84013819D01*
X138583149Y-84014629D01*
X138630659Y-83970881D01*
X138700596Y-83958661D01*
X138766038Y-83986191D01*
X138793870Y-84018029D01*
X138820459Y-84061419D01*
X138830916Y-84070880D01*
X138839694Y-84067096D01*
X139581978Y-83324812D01*
X139588356Y-83313132D01*
X140318408Y-83313132D01*
X140318539Y-83314965D01*
X140322790Y-83321580D01*
X141064474Y-84063264D01*
X141076484Y-84069823D01*
X141088223Y-84060855D01*
X141119004Y-84018019D01*
X141124315Y-84009180D01*
X141218670Y-83818267D01*
X141222469Y-83808672D01*
X141284376Y-83604915D01*
X141286555Y-83594834D01*
X141314590Y-83381887D01*
X141315109Y-83375212D01*
X141316572Y-83315364D01*
X141316378Y-83308646D01*
X141314341Y-83283863D01*
X151292050Y-83283863D01*
X151304309Y-83496477D01*
X151305745Y-83506697D01*
X151352565Y-83714446D01*
X151355645Y-83724275D01*
X151435770Y-83921603D01*
X151440413Y-83930794D01*
X151520460Y-84061420D01*
X151530916Y-84070880D01*
X151539694Y-84067096D01*
X152281978Y-83324812D01*
X152288356Y-83313132D01*
X153018408Y-83313132D01*
X153018539Y-83314965D01*
X153022790Y-83321580D01*
X153764474Y-84063264D01*
X153776484Y-84069823D01*
X153788223Y-84060855D01*
X153819004Y-84018019D01*
X153824315Y-84009180D01*
X153918670Y-83818267D01*
X153922469Y-83808672D01*
X153984376Y-83604915D01*
X153986555Y-83594834D01*
X154014590Y-83381887D01*
X154015109Y-83375212D01*
X154016572Y-83315364D01*
X154016378Y-83308646D01*
X153998781Y-83094604D01*
X153997096Y-83084424D01*
X153945214Y-82877875D01*
X153941894Y-82868124D01*
X153856972Y-82672814D01*
X153852105Y-82663739D01*
X153787063Y-82563197D01*
X153776377Y-82553995D01*
X153766812Y-82558398D01*
X153026022Y-83299188D01*
X153018408Y-83313132D01*
X152288356Y-83313132D01*
X152289592Y-83310868D01*
X152289461Y-83309035D01*
X152285210Y-83302420D01*
X151543849Y-82561059D01*
X151532313Y-82554759D01*
X151520031Y-82564382D01*
X151472089Y-82634662D01*
X151467004Y-82643613D01*
X151377338Y-82836783D01*
X151373775Y-82846470D01*
X151316864Y-83051681D01*
X151314933Y-83061800D01*
X151292302Y-83273574D01*
X151292050Y-83283863D01*
X141314341Y-83283863D01*
X141298781Y-83094604D01*
X141297096Y-83084424D01*
X141245214Y-82877875D01*
X141241894Y-82868124D01*
X141156972Y-82672814D01*
X141152105Y-82663739D01*
X141087063Y-82563197D01*
X141076377Y-82553995D01*
X141066812Y-82558398D01*
X140326022Y-83299188D01*
X140318408Y-83313132D01*
X139588356Y-83313132D01*
X139589592Y-83310868D01*
X139589461Y-83309035D01*
X139585210Y-83302420D01*
X138843849Y-82561059D01*
X138832313Y-82554759D01*
X138820028Y-82564384D01*
X138787192Y-82612520D01*
X138732281Y-82657523D01*
X138661756Y-82665694D01*
X138598009Y-82634440D01*
X138577311Y-82609955D01*
X138547062Y-82563197D01*
X138536377Y-82553995D01*
X138526812Y-82558398D01*
X137786022Y-83299188D01*
X137778408Y-83313132D01*
X137048356Y-83313132D01*
X137049592Y-83310868D01*
X137049461Y-83309035D01*
X137045210Y-83302420D01*
X136303849Y-82561059D01*
X136292313Y-82554759D01*
X136280031Y-82564382D01*
X136232089Y-82634662D01*
X136227004Y-82643613D01*
X136137338Y-82836783D01*
X136133775Y-82846470D01*
X136076864Y-83051681D01*
X136074933Y-83061800D01*
X136052302Y-83273574D01*
X136052050Y-83283863D01*
X126074341Y-83283863D01*
X126058781Y-83094604D01*
X126057096Y-83084424D01*
X126005214Y-82877875D01*
X126001894Y-82868124D01*
X125916972Y-82672814D01*
X125912105Y-82663739D01*
X125847063Y-82563197D01*
X125836377Y-82553995D01*
X125826812Y-82558398D01*
X125086022Y-83299188D01*
X125078408Y-83313132D01*
X124348356Y-83313132D01*
X124349592Y-83310868D01*
X124349461Y-83309035D01*
X124345210Y-83302420D01*
X123603849Y-82561059D01*
X123592313Y-82554759D01*
X123580031Y-82564382D01*
X123532089Y-82634662D01*
X123527004Y-82643613D01*
X123437338Y-82836783D01*
X123433775Y-82846470D01*
X123376864Y-83051681D01*
X123374933Y-83061800D01*
X123352302Y-83273574D01*
X123352050Y-83283863D01*
X117002041Y-83283863D01*
X118097477Y-82188427D01*
X123955223Y-82188427D01*
X123961968Y-82200758D01*
X124701188Y-82939978D01*
X124715132Y-82947592D01*
X124716965Y-82947461D01*
X124723580Y-82943210D01*
X125467389Y-82199401D01*
X125473382Y-82188427D01*
X136655223Y-82188427D01*
X136661968Y-82200758D01*
X137401188Y-82939978D01*
X137415132Y-82947592D01*
X137416965Y-82947461D01*
X137423580Y-82943210D01*
X138167389Y-82199401D01*
X138173382Y-82188427D01*
X139195223Y-82188427D01*
X139201968Y-82200758D01*
X139941188Y-82939978D01*
X139955132Y-82947592D01*
X139956965Y-82947461D01*
X139963580Y-82943210D01*
X140707389Y-82199401D01*
X140713382Y-82188427D01*
X151895223Y-82188427D01*
X151901968Y-82200758D01*
X152641188Y-82939978D01*
X152655132Y-82947592D01*
X152656965Y-82947461D01*
X152663580Y-82943210D01*
X153407389Y-82199401D01*
X153414410Y-82186544D01*
X153407611Y-82177213D01*
X153403554Y-82174518D01*
X153217117Y-82071599D01*
X153207705Y-82067369D01*
X153006959Y-81996280D01*
X152996989Y-81993646D01*
X152787327Y-81956301D01*
X152777073Y-81955331D01*
X152564116Y-81952728D01*
X152553832Y-81953448D01*
X152343321Y-81985661D01*
X152333293Y-81988050D01*
X152130868Y-82054212D01*
X152121359Y-82058209D01*
X151932466Y-82156540D01*
X151923734Y-82162039D01*
X151903677Y-82177099D01*
X151895223Y-82188427D01*
X140713382Y-82188427D01*
X140714410Y-82186544D01*
X140707611Y-82177213D01*
X140703554Y-82174518D01*
X140517117Y-82071599D01*
X140507705Y-82067369D01*
X140306959Y-81996280D01*
X140296989Y-81993646D01*
X140087327Y-81956301D01*
X140077073Y-81955331D01*
X139864116Y-81952728D01*
X139853832Y-81953448D01*
X139643321Y-81985661D01*
X139633293Y-81988050D01*
X139430868Y-82054212D01*
X139421359Y-82058209D01*
X139232466Y-82156540D01*
X139223734Y-82162039D01*
X139203677Y-82177099D01*
X139195223Y-82188427D01*
X138173382Y-82188427D01*
X138174410Y-82186544D01*
X138167611Y-82177213D01*
X138163554Y-82174518D01*
X137977117Y-82071599D01*
X137967705Y-82067369D01*
X137766959Y-81996280D01*
X137756989Y-81993646D01*
X137547327Y-81956301D01*
X137537073Y-81955331D01*
X137324116Y-81952728D01*
X137313832Y-81953448D01*
X137103321Y-81985661D01*
X137093293Y-81988050D01*
X136890868Y-82054212D01*
X136881359Y-82058209D01*
X136692466Y-82156540D01*
X136683734Y-82162039D01*
X136663677Y-82177099D01*
X136655223Y-82188427D01*
X125473382Y-82188427D01*
X125474410Y-82186544D01*
X125467611Y-82177213D01*
X125463554Y-82174518D01*
X125277117Y-82071599D01*
X125267705Y-82067369D01*
X125066959Y-81996280D01*
X125056989Y-81993646D01*
X124847327Y-81956301D01*
X124837073Y-81955331D01*
X124624116Y-81952728D01*
X124613832Y-81953448D01*
X124403321Y-81985661D01*
X124393293Y-81988050D01*
X124190868Y-82054212D01*
X124181359Y-82058209D01*
X123992466Y-82156540D01*
X123983734Y-82162039D01*
X123963677Y-82177099D01*
X123955223Y-82188427D01*
X118097477Y-82188427D01*
X119547209Y-80738695D01*
X221649251Y-80738695D01*
X221649548Y-80743848D01*
X221649548Y-80743851D01*
X221655011Y-80838590D01*
X221662110Y-80961715D01*
X221663247Y-80966761D01*
X221663248Y-80966767D01*
X221665490Y-80976715D01*
X221711222Y-81179639D01*
X221795266Y-81386616D01*
X221846019Y-81469438D01*
X221909291Y-81572688D01*
X221911987Y-81577088D01*
X222058250Y-81745938D01*
X222230126Y-81888632D01*
X222423000Y-82001338D01*
X222631692Y-82081030D01*
X222636760Y-82082061D01*
X222636763Y-82082062D01*
X222744017Y-82103883D01*
X222850597Y-82125567D01*
X222855772Y-82125757D01*
X222855774Y-82125757D01*
X223068673Y-82133564D01*
X223068677Y-82133564D01*
X223073837Y-82133753D01*
X223078957Y-82133097D01*
X223078959Y-82133097D01*
X223290288Y-82106025D01*
X223290289Y-82106025D01*
X223295416Y-82105368D01*
X223300366Y-82103883D01*
X223504429Y-82042661D01*
X223504434Y-82042659D01*
X223509384Y-82041174D01*
X223709994Y-81942896D01*
X223891860Y-81813173D01*
X224050096Y-81655489D01*
X224109594Y-81572689D01*
X224180453Y-81474077D01*
X224181776Y-81475028D01*
X224228645Y-81431857D01*
X224298580Y-81419625D01*
X224364026Y-81447144D01*
X224391875Y-81478994D01*
X224451987Y-81577088D01*
X224598250Y-81745938D01*
X224770126Y-81888632D01*
X224963000Y-82001338D01*
X225171692Y-82081030D01*
X225176760Y-82082061D01*
X225176763Y-82082062D01*
X225284017Y-82103883D01*
X225390597Y-82125567D01*
X225395772Y-82125757D01*
X225395774Y-82125757D01*
X225608673Y-82133564D01*
X225608677Y-82133564D01*
X225613837Y-82133753D01*
X225618957Y-82133097D01*
X225618959Y-82133097D01*
X225830288Y-82106025D01*
X225830289Y-82106025D01*
X225835416Y-82105368D01*
X225840366Y-82103883D01*
X226044429Y-82042661D01*
X226044434Y-82042659D01*
X226049384Y-82041174D01*
X226249994Y-81942896D01*
X226431860Y-81813173D01*
X226590096Y-81655489D01*
X226649594Y-81572689D01*
X226720453Y-81474077D01*
X226721776Y-81475028D01*
X226768645Y-81431857D01*
X226838580Y-81419625D01*
X226904026Y-81447144D01*
X226931875Y-81478994D01*
X226991987Y-81577088D01*
X227138250Y-81745938D01*
X227310126Y-81888632D01*
X227503000Y-82001338D01*
X227711692Y-82081030D01*
X227716760Y-82082061D01*
X227716763Y-82082062D01*
X227824017Y-82103883D01*
X227930597Y-82125567D01*
X227935772Y-82125757D01*
X227935774Y-82125757D01*
X228148673Y-82133564D01*
X228148677Y-82133564D01*
X228153837Y-82133753D01*
X228158957Y-82133097D01*
X228158959Y-82133097D01*
X228370288Y-82106025D01*
X228370289Y-82106025D01*
X228375416Y-82105368D01*
X228380366Y-82103883D01*
X228584429Y-82042661D01*
X228584434Y-82042659D01*
X228589384Y-82041174D01*
X228789994Y-81942896D01*
X228971860Y-81813173D01*
X229130096Y-81655489D01*
X229189594Y-81572689D01*
X229260453Y-81474077D01*
X229261776Y-81475028D01*
X229308645Y-81431857D01*
X229378580Y-81419625D01*
X229444026Y-81447144D01*
X229471875Y-81478994D01*
X229531987Y-81577088D01*
X229678250Y-81745938D01*
X229850126Y-81888632D01*
X230043000Y-82001338D01*
X230251692Y-82081030D01*
X230256760Y-82082061D01*
X230256763Y-82082062D01*
X230364017Y-82103883D01*
X230470597Y-82125567D01*
X230475772Y-82125757D01*
X230475774Y-82125757D01*
X230688673Y-82133564D01*
X230688677Y-82133564D01*
X230693837Y-82133753D01*
X230698957Y-82133097D01*
X230698959Y-82133097D01*
X230910288Y-82106025D01*
X230910289Y-82106025D01*
X230915416Y-82105368D01*
X230920366Y-82103883D01*
X231124429Y-82042661D01*
X231124434Y-82042659D01*
X231129384Y-82041174D01*
X231329994Y-81942896D01*
X231511860Y-81813173D01*
X231670096Y-81655489D01*
X231729594Y-81572689D01*
X231800453Y-81474077D01*
X231801776Y-81475028D01*
X231848645Y-81431857D01*
X231918580Y-81419625D01*
X231984026Y-81447144D01*
X232011875Y-81478994D01*
X232071987Y-81577088D01*
X232218250Y-81745938D01*
X232390126Y-81888632D01*
X232583000Y-82001338D01*
X232791692Y-82081030D01*
X232796760Y-82082061D01*
X232796763Y-82082062D01*
X232904017Y-82103883D01*
X233010597Y-82125567D01*
X233015772Y-82125757D01*
X233015774Y-82125757D01*
X233228673Y-82133564D01*
X233228677Y-82133564D01*
X233233837Y-82133753D01*
X233238957Y-82133097D01*
X233238959Y-82133097D01*
X233450288Y-82106025D01*
X233450289Y-82106025D01*
X233455416Y-82105368D01*
X233460366Y-82103883D01*
X233664429Y-82042661D01*
X233664434Y-82042659D01*
X233669384Y-82041174D01*
X233869994Y-81942896D01*
X234051860Y-81813173D01*
X234210096Y-81655489D01*
X234269594Y-81572689D01*
X234340453Y-81474077D01*
X234341776Y-81475028D01*
X234388645Y-81431857D01*
X234458580Y-81419625D01*
X234524026Y-81447144D01*
X234551875Y-81478994D01*
X234611987Y-81577088D01*
X234758250Y-81745938D01*
X234930126Y-81888632D01*
X235123000Y-82001338D01*
X235331692Y-82081030D01*
X235336760Y-82082061D01*
X235336763Y-82082062D01*
X235444017Y-82103883D01*
X235550597Y-82125567D01*
X235555772Y-82125757D01*
X235555774Y-82125757D01*
X235768673Y-82133564D01*
X235768677Y-82133564D01*
X235773837Y-82133753D01*
X235778957Y-82133097D01*
X235778959Y-82133097D01*
X235990288Y-82106025D01*
X235990289Y-82106025D01*
X235995416Y-82105368D01*
X236000366Y-82103883D01*
X236204429Y-82042661D01*
X236204434Y-82042659D01*
X236209384Y-82041174D01*
X236409994Y-81942896D01*
X236591860Y-81813173D01*
X236750096Y-81655489D01*
X236809594Y-81572689D01*
X236877435Y-81478277D01*
X236880453Y-81474077D01*
X236900499Y-81433518D01*
X236977136Y-81278453D01*
X236977137Y-81278451D01*
X236979430Y-81273811D01*
X237044370Y-81060069D01*
X237073529Y-80838590D01*
X237075156Y-80772000D01*
X237056852Y-80549361D01*
X237002431Y-80332702D01*
X236913354Y-80127840D01*
X236792014Y-79940277D01*
X236641670Y-79775051D01*
X236637619Y-79771852D01*
X236637615Y-79771848D01*
X236470414Y-79639800D01*
X236470410Y-79639798D01*
X236466359Y-79636598D01*
X236270789Y-79528638D01*
X236265920Y-79526914D01*
X236265916Y-79526912D01*
X236065087Y-79455795D01*
X236065083Y-79455794D01*
X236060212Y-79454069D01*
X236055119Y-79453162D01*
X236055116Y-79453161D01*
X235845373Y-79415800D01*
X235845367Y-79415799D01*
X235840284Y-79414894D01*
X235766452Y-79413992D01*
X235622081Y-79412228D01*
X235622079Y-79412228D01*
X235616911Y-79412165D01*
X235396091Y-79445955D01*
X235183756Y-79515357D01*
X234985607Y-79618507D01*
X234981474Y-79621610D01*
X234981471Y-79621612D01*
X234811100Y-79749530D01*
X234806965Y-79752635D01*
X234652629Y-79914138D01*
X234545201Y-80071621D01*
X234490293Y-80116621D01*
X234419768Y-80124792D01*
X234356021Y-80093538D01*
X234335324Y-80069054D01*
X234254822Y-79944617D01*
X234254820Y-79944614D01*
X234252014Y-79940277D01*
X234101670Y-79775051D01*
X234097619Y-79771852D01*
X234097615Y-79771848D01*
X233930414Y-79639800D01*
X233930410Y-79639798D01*
X233926359Y-79636598D01*
X233730789Y-79528638D01*
X233725920Y-79526914D01*
X233725916Y-79526912D01*
X233525087Y-79455795D01*
X233525083Y-79455794D01*
X233520212Y-79454069D01*
X233515119Y-79453162D01*
X233515116Y-79453161D01*
X233305373Y-79415800D01*
X233305367Y-79415799D01*
X233300284Y-79414894D01*
X233226452Y-79413992D01*
X233082081Y-79412228D01*
X233082079Y-79412228D01*
X233076911Y-79412165D01*
X232856091Y-79445955D01*
X232643756Y-79515357D01*
X232445607Y-79618507D01*
X232441474Y-79621610D01*
X232441471Y-79621612D01*
X232271100Y-79749530D01*
X232266965Y-79752635D01*
X232112629Y-79914138D01*
X232005201Y-80071621D01*
X231950293Y-80116621D01*
X231879768Y-80124792D01*
X231816021Y-80093538D01*
X231795324Y-80069054D01*
X231714822Y-79944617D01*
X231714820Y-79944614D01*
X231712014Y-79940277D01*
X231561670Y-79775051D01*
X231557619Y-79771852D01*
X231557615Y-79771848D01*
X231390414Y-79639800D01*
X231390410Y-79639798D01*
X231386359Y-79636598D01*
X231190789Y-79528638D01*
X231185920Y-79526914D01*
X231185916Y-79526912D01*
X230985087Y-79455795D01*
X230985083Y-79455794D01*
X230980212Y-79454069D01*
X230975119Y-79453162D01*
X230975116Y-79453161D01*
X230765373Y-79415800D01*
X230765367Y-79415799D01*
X230760284Y-79414894D01*
X230686452Y-79413992D01*
X230542081Y-79412228D01*
X230542079Y-79412228D01*
X230536911Y-79412165D01*
X230316091Y-79445955D01*
X230103756Y-79515357D01*
X229905607Y-79618507D01*
X229901474Y-79621610D01*
X229901471Y-79621612D01*
X229731100Y-79749530D01*
X229726965Y-79752635D01*
X229572629Y-79914138D01*
X229465201Y-80071621D01*
X229410293Y-80116621D01*
X229339768Y-80124792D01*
X229276021Y-80093538D01*
X229255324Y-80069054D01*
X229174822Y-79944617D01*
X229174820Y-79944614D01*
X229172014Y-79940277D01*
X229021670Y-79775051D01*
X229017619Y-79771852D01*
X229017615Y-79771848D01*
X228850414Y-79639800D01*
X228850410Y-79639798D01*
X228846359Y-79636598D01*
X228650789Y-79528638D01*
X228645920Y-79526914D01*
X228645916Y-79526912D01*
X228445087Y-79455795D01*
X228445083Y-79455794D01*
X228440212Y-79454069D01*
X228435119Y-79453162D01*
X228435116Y-79453161D01*
X228225373Y-79415800D01*
X228225367Y-79415799D01*
X228220284Y-79414894D01*
X228146452Y-79413992D01*
X228002081Y-79412228D01*
X228002079Y-79412228D01*
X227996911Y-79412165D01*
X227776091Y-79445955D01*
X227563756Y-79515357D01*
X227365607Y-79618507D01*
X227361474Y-79621610D01*
X227361471Y-79621612D01*
X227191100Y-79749530D01*
X227186965Y-79752635D01*
X227032629Y-79914138D01*
X226925201Y-80071621D01*
X226870293Y-80116621D01*
X226799768Y-80124792D01*
X226736021Y-80093538D01*
X226715324Y-80069054D01*
X226634822Y-79944617D01*
X226634820Y-79944614D01*
X226632014Y-79940277D01*
X226481670Y-79775051D01*
X226477619Y-79771852D01*
X226477615Y-79771848D01*
X226310414Y-79639800D01*
X226310410Y-79639798D01*
X226306359Y-79636598D01*
X226110789Y-79528638D01*
X226105920Y-79526914D01*
X226105916Y-79526912D01*
X225905087Y-79455795D01*
X225905083Y-79455794D01*
X225900212Y-79454069D01*
X225895119Y-79453162D01*
X225895116Y-79453161D01*
X225685373Y-79415800D01*
X225685367Y-79415799D01*
X225680284Y-79414894D01*
X225606452Y-79413992D01*
X225462081Y-79412228D01*
X225462079Y-79412228D01*
X225456911Y-79412165D01*
X225236091Y-79445955D01*
X225023756Y-79515357D01*
X224825607Y-79618507D01*
X224821474Y-79621610D01*
X224821471Y-79621612D01*
X224651100Y-79749530D01*
X224646965Y-79752635D01*
X224492629Y-79914138D01*
X224385201Y-80071621D01*
X224330293Y-80116621D01*
X224259768Y-80124792D01*
X224196021Y-80093538D01*
X224175324Y-80069054D01*
X224094822Y-79944617D01*
X224094820Y-79944614D01*
X224092014Y-79940277D01*
X223941670Y-79775051D01*
X223937619Y-79771852D01*
X223937615Y-79771848D01*
X223770414Y-79639800D01*
X223770410Y-79639798D01*
X223766359Y-79636598D01*
X223570789Y-79528638D01*
X223565920Y-79526914D01*
X223565916Y-79526912D01*
X223365087Y-79455795D01*
X223365083Y-79455794D01*
X223360212Y-79454069D01*
X223355119Y-79453162D01*
X223355116Y-79453161D01*
X223145373Y-79415800D01*
X223145367Y-79415799D01*
X223140284Y-79414894D01*
X223066452Y-79413992D01*
X222922081Y-79412228D01*
X222922079Y-79412228D01*
X222916911Y-79412165D01*
X222696091Y-79445955D01*
X222483756Y-79515357D01*
X222285607Y-79618507D01*
X222281474Y-79621610D01*
X222281471Y-79621612D01*
X222111100Y-79749530D01*
X222106965Y-79752635D01*
X221952629Y-79914138D01*
X221826743Y-80098680D01*
X221732688Y-80301305D01*
X221672989Y-80516570D01*
X221649251Y-80738695D01*
X119547209Y-80738695D01*
X121383499Y-78902405D01*
X121445811Y-78868379D01*
X121472594Y-78865500D01*
X123438274Y-78865500D01*
X123506395Y-78885502D01*
X123545707Y-78925665D01*
X123613987Y-79037088D01*
X123760250Y-79205938D01*
X123932126Y-79348632D01*
X124125000Y-79461338D01*
X124333692Y-79541030D01*
X124338760Y-79542061D01*
X124338763Y-79542062D01*
X124446017Y-79563883D01*
X124552597Y-79585567D01*
X124557772Y-79585757D01*
X124557774Y-79585757D01*
X124770673Y-79593564D01*
X124770677Y-79593564D01*
X124775837Y-79593753D01*
X124780957Y-79593097D01*
X124780959Y-79593097D01*
X124992288Y-79566025D01*
X124992289Y-79566025D01*
X124997416Y-79565368D01*
X125046080Y-79550768D01*
X125206429Y-79502661D01*
X125206434Y-79502659D01*
X125211384Y-79501174D01*
X125411994Y-79402896D01*
X125593860Y-79273173D01*
X125752096Y-79115489D01*
X125811594Y-79032689D01*
X125879435Y-78938277D01*
X125882453Y-78934077D01*
X125886611Y-78925665D01*
X125979136Y-78738453D01*
X125979137Y-78738451D01*
X125981430Y-78733811D01*
X126046370Y-78520069D01*
X126075529Y-78298590D01*
X126077156Y-78232000D01*
X126058852Y-78009361D01*
X126004431Y-77792702D01*
X125915354Y-77587840D01*
X125874599Y-77524842D01*
X125796822Y-77404617D01*
X125796820Y-77404614D01*
X125794014Y-77400277D01*
X125778662Y-77383405D01*
X125701223Y-77298300D01*
X125670171Y-77234454D01*
X125678566Y-77163955D01*
X125723742Y-77109187D01*
X125794416Y-77087500D01*
X136333856Y-77087500D01*
X136401977Y-77107502D01*
X136448470Y-77161158D01*
X136458574Y-77231432D01*
X136424950Y-77300551D01*
X136354629Y-77374138D01*
X136228743Y-77558680D01*
X136134688Y-77761305D01*
X136074989Y-77976570D01*
X136051251Y-78198695D01*
X136051548Y-78203848D01*
X136051548Y-78203851D01*
X136057011Y-78298590D01*
X136064110Y-78421715D01*
X136065247Y-78426761D01*
X136065248Y-78426767D01*
X136085119Y-78514939D01*
X136113222Y-78639639D01*
X136197266Y-78846616D01*
X136245707Y-78925665D01*
X136311291Y-79032688D01*
X136313987Y-79037088D01*
X136460250Y-79205938D01*
X136632126Y-79348632D01*
X136825000Y-79461338D01*
X137033692Y-79541030D01*
X137038760Y-79542061D01*
X137038763Y-79542062D01*
X137146017Y-79563883D01*
X137252597Y-79585567D01*
X137257772Y-79585757D01*
X137257774Y-79585757D01*
X137470673Y-79593564D01*
X137470677Y-79593564D01*
X137475837Y-79593753D01*
X137480957Y-79593097D01*
X137480959Y-79593097D01*
X137692288Y-79566025D01*
X137692289Y-79566025D01*
X137697416Y-79565368D01*
X137746080Y-79550768D01*
X137906429Y-79502661D01*
X137906434Y-79502659D01*
X137911384Y-79501174D01*
X138111994Y-79402896D01*
X138293860Y-79273173D01*
X138452096Y-79115489D01*
X138511594Y-79032689D01*
X138582453Y-78934077D01*
X138583776Y-78935028D01*
X138630645Y-78891857D01*
X138700580Y-78879625D01*
X138766026Y-78907144D01*
X138793875Y-78938994D01*
X138853987Y-79037088D01*
X139000250Y-79205938D01*
X139172126Y-79348632D01*
X139365000Y-79461338D01*
X139573692Y-79541030D01*
X139578760Y-79542061D01*
X139578763Y-79542062D01*
X139686017Y-79563883D01*
X139792597Y-79585567D01*
X139797772Y-79585757D01*
X139797774Y-79585757D01*
X140010673Y-79593564D01*
X140010677Y-79593564D01*
X140015837Y-79593753D01*
X140020957Y-79593097D01*
X140020959Y-79593097D01*
X140232288Y-79566025D01*
X140232289Y-79566025D01*
X140237416Y-79565368D01*
X140286080Y-79550768D01*
X140446429Y-79502661D01*
X140446434Y-79502659D01*
X140451384Y-79501174D01*
X140651994Y-79402896D01*
X140833860Y-79273173D01*
X140992096Y-79115489D01*
X141051594Y-79032689D01*
X141119435Y-78938277D01*
X141122453Y-78934077D01*
X141126611Y-78925665D01*
X141219136Y-78738453D01*
X141219137Y-78738451D01*
X141221430Y-78733811D01*
X141286370Y-78520069D01*
X141315529Y-78298590D01*
X141317156Y-78232000D01*
X141314418Y-78198695D01*
X151291251Y-78198695D01*
X151291548Y-78203848D01*
X151291548Y-78203851D01*
X151297011Y-78298590D01*
X151304110Y-78421715D01*
X151305247Y-78426761D01*
X151305248Y-78426767D01*
X151325119Y-78514939D01*
X151353222Y-78639639D01*
X151437266Y-78846616D01*
X151485707Y-78925665D01*
X151551291Y-79032688D01*
X151553987Y-79037088D01*
X151700250Y-79205938D01*
X151872126Y-79348632D01*
X152065000Y-79461338D01*
X152273692Y-79541030D01*
X152278760Y-79542061D01*
X152278763Y-79542062D01*
X152386017Y-79563883D01*
X152492597Y-79585567D01*
X152497772Y-79585757D01*
X152497774Y-79585757D01*
X152710673Y-79593564D01*
X152710677Y-79593564D01*
X152715837Y-79593753D01*
X152720957Y-79593097D01*
X152720959Y-79593097D01*
X152932288Y-79566025D01*
X152932289Y-79566025D01*
X152937416Y-79565368D01*
X152986080Y-79550768D01*
X153146429Y-79502661D01*
X153146434Y-79502659D01*
X153151384Y-79501174D01*
X153351994Y-79402896D01*
X153533860Y-79273173D01*
X153692096Y-79115489D01*
X153751594Y-79032689D01*
X153819435Y-78938277D01*
X153822453Y-78934077D01*
X153826611Y-78925665D01*
X153919136Y-78738453D01*
X153919137Y-78738451D01*
X153921430Y-78733811D01*
X153986370Y-78520069D01*
X154015529Y-78298590D01*
X154017156Y-78232000D01*
X153998852Y-78009361D01*
X153944431Y-77792702D01*
X153855354Y-77587840D01*
X153814599Y-77524842D01*
X153736822Y-77404617D01*
X153736820Y-77404614D01*
X153734014Y-77400277D01*
X153583670Y-77235051D01*
X153579619Y-77231852D01*
X153579615Y-77231848D01*
X153412414Y-77099800D01*
X153412410Y-77099798D01*
X153408359Y-77096598D01*
X153397094Y-77090379D01*
X153307496Y-77040919D01*
X153212789Y-76988638D01*
X153207920Y-76986914D01*
X153207916Y-76986912D01*
X153007087Y-76915795D01*
X153007083Y-76915794D01*
X153002212Y-76914069D01*
X152997119Y-76913162D01*
X152997116Y-76913161D01*
X152787373Y-76875800D01*
X152787367Y-76875799D01*
X152782284Y-76874894D01*
X152708452Y-76873992D01*
X152564081Y-76872228D01*
X152564079Y-76872228D01*
X152558911Y-76872165D01*
X152338091Y-76905955D01*
X152125756Y-76975357D01*
X151927607Y-77078507D01*
X151923474Y-77081610D01*
X151923471Y-77081612D01*
X151753100Y-77209530D01*
X151748965Y-77212635D01*
X151745393Y-77216373D01*
X151618780Y-77348866D01*
X151594629Y-77374138D01*
X151468743Y-77558680D01*
X151374688Y-77761305D01*
X151314989Y-77976570D01*
X151291251Y-78198695D01*
X141314418Y-78198695D01*
X141298852Y-78009361D01*
X141244431Y-77792702D01*
X141155354Y-77587840D01*
X141114599Y-77524842D01*
X141036822Y-77404617D01*
X141036820Y-77404614D01*
X141034014Y-77400277D01*
X140883670Y-77235051D01*
X140879619Y-77231852D01*
X140879615Y-77231848D01*
X140712414Y-77099800D01*
X140712410Y-77099798D01*
X140708359Y-77096598D01*
X140697094Y-77090379D01*
X140607496Y-77040919D01*
X140512789Y-76988638D01*
X140507920Y-76986914D01*
X140507916Y-76986912D01*
X140307087Y-76915795D01*
X140307083Y-76915794D01*
X140302212Y-76914069D01*
X140297119Y-76913162D01*
X140297116Y-76913161D01*
X140087373Y-76875800D01*
X140087367Y-76875799D01*
X140082284Y-76874894D01*
X140008452Y-76873992D01*
X139864081Y-76872228D01*
X139864079Y-76872228D01*
X139858911Y-76872165D01*
X139638091Y-76905955D01*
X139625532Y-76910060D01*
X139554568Y-76912210D01*
X139497294Y-76879389D01*
X138679652Y-76061747D01*
X138672112Y-76053461D01*
X138668000Y-76046982D01*
X138618348Y-76000356D01*
X138615507Y-75997602D01*
X138595770Y-75977865D01*
X138592573Y-75975385D01*
X138583551Y-75967680D01*
X138570116Y-75955064D01*
X138551321Y-75937414D01*
X138544375Y-75933595D01*
X138544372Y-75933593D01*
X138533566Y-75927652D01*
X138517047Y-75916801D01*
X138516583Y-75916441D01*
X138501041Y-75904386D01*
X138493772Y-75901241D01*
X138493768Y-75901238D01*
X138460463Y-75886826D01*
X138449813Y-75881609D01*
X138411060Y-75860305D01*
X138391437Y-75855267D01*
X138372734Y-75848863D01*
X138361420Y-75843967D01*
X138361419Y-75843967D01*
X138354145Y-75840819D01*
X138346322Y-75839580D01*
X138346312Y-75839577D01*
X138310476Y-75833901D01*
X138298856Y-75831495D01*
X138263711Y-75822472D01*
X138263710Y-75822472D01*
X138256030Y-75820500D01*
X138235776Y-75820500D01*
X138216065Y-75818949D01*
X138213534Y-75818548D01*
X138196057Y-75815780D01*
X138188165Y-75816526D01*
X138152039Y-75819941D01*
X138140181Y-75820500D01*
X121744763Y-75820500D01*
X121733579Y-75819973D01*
X121726091Y-75818299D01*
X121718168Y-75818548D01*
X121658033Y-75820438D01*
X121654075Y-75820500D01*
X121626144Y-75820500D01*
X121622229Y-75820995D01*
X121622225Y-75820995D01*
X121622167Y-75821003D01*
X121622138Y-75821006D01*
X121610296Y-75821939D01*
X121566110Y-75823327D01*
X121548744Y-75828372D01*
X121546658Y-75828978D01*
X121527306Y-75832986D01*
X121520235Y-75833880D01*
X121507203Y-75835526D01*
X121499834Y-75838443D01*
X121499832Y-75838444D01*
X121466097Y-75851800D01*
X121454869Y-75855645D01*
X121412407Y-75867982D01*
X121405585Y-75872016D01*
X121405579Y-75872019D01*
X121394968Y-75878294D01*
X121377218Y-75886990D01*
X121365756Y-75891528D01*
X121365751Y-75891531D01*
X121358383Y-75894448D01*
X121340970Y-75907099D01*
X121322625Y-75920427D01*
X121312707Y-75926943D01*
X121301463Y-75933593D01*
X121274637Y-75949458D01*
X121260313Y-75963782D01*
X121245281Y-75976621D01*
X121228893Y-75988528D01*
X121200712Y-76022593D01*
X121192722Y-76031373D01*
X117107500Y-80116595D01*
X117045188Y-80150621D01*
X117018405Y-80153500D01*
X108718805Y-80153500D01*
X108650684Y-80133498D01*
X108613013Y-80095940D01*
X108524822Y-79959617D01*
X108524820Y-79959614D01*
X108522014Y-79955277D01*
X108504889Y-79936457D01*
X108374798Y-79793488D01*
X108343746Y-79729642D01*
X108352141Y-79659143D01*
X108397317Y-79604375D01*
X108423761Y-79590706D01*
X108530297Y-79550767D01*
X108538705Y-79547615D01*
X108655261Y-79460261D01*
X108742615Y-79343705D01*
X108793745Y-79207316D01*
X108800500Y-79145134D01*
X108800500Y-77348866D01*
X108793745Y-77286684D01*
X108742615Y-77150295D01*
X108655261Y-77033739D01*
X108538705Y-76946385D01*
X108402316Y-76895255D01*
X108340134Y-76888500D01*
X106543866Y-76888500D01*
X106481684Y-76895255D01*
X106345295Y-76946385D01*
X106228739Y-77033739D01*
X106141385Y-77150295D01*
X106090255Y-77286684D01*
X106083500Y-77348866D01*
X106083500Y-79145134D01*
X106090255Y-79207316D01*
X106141385Y-79343705D01*
X106228739Y-79460261D01*
X106345295Y-79547615D01*
X106353704Y-79550767D01*
X106353705Y-79550768D01*
X106462451Y-79591535D01*
X106519216Y-79634176D01*
X106543916Y-79700738D01*
X106528709Y-79770087D01*
X106509316Y-79796568D01*
X106392888Y-79918403D01*
X106382629Y-79929138D01*
X106256743Y-80113680D01*
X106239596Y-80150621D01*
X106167334Y-80306297D01*
X106162688Y-80316305D01*
X106102989Y-80531570D01*
X106079251Y-80753695D01*
X106092110Y-80976715D01*
X106093247Y-80981761D01*
X106093248Y-80981767D01*
X106109739Y-81054939D01*
X106141222Y-81194639D01*
X106225266Y-81401616D01*
X106227965Y-81406020D01*
X106330099Y-81572688D01*
X106341987Y-81592088D01*
X106488250Y-81760938D01*
X106660126Y-81903632D01*
X106722178Y-81939892D01*
X106733445Y-81946476D01*
X106782169Y-81998114D01*
X106795240Y-82067897D01*
X106768509Y-82133669D01*
X106728055Y-82167027D01*
X106715607Y-82173507D01*
X106711474Y-82176610D01*
X106711471Y-82176612D01*
X106687247Y-82194800D01*
X106536965Y-82307635D01*
X106382629Y-82469138D01*
X106256743Y-82653680D01*
X106241003Y-82687590D01*
X106171750Y-82836783D01*
X106162688Y-82856305D01*
X106102989Y-83071570D01*
X106079251Y-83293695D01*
X106079548Y-83298848D01*
X106079548Y-83298851D01*
X106085011Y-83393590D01*
X106092110Y-83516715D01*
X106093247Y-83521761D01*
X106093248Y-83521767D01*
X106109715Y-83594834D01*
X106141222Y-83734639D01*
X106179461Y-83828811D01*
X106220872Y-83930794D01*
X106225266Y-83941616D01*
X106227965Y-83946020D01*
X106298336Y-84060855D01*
X106341987Y-84132088D01*
X106488250Y-84300938D01*
X106660126Y-84443632D01*
X106721447Y-84479465D01*
X106733445Y-84486476D01*
X106782169Y-84538114D01*
X106795240Y-84607897D01*
X106768509Y-84673669D01*
X106728055Y-84707027D01*
X106715607Y-84713507D01*
X106711474Y-84716610D01*
X106711471Y-84716612D01*
X106687247Y-84734800D01*
X106536965Y-84847635D01*
X106382629Y-85009138D01*
X106256743Y-85193680D01*
X106162688Y-85396305D01*
X106102989Y-85611570D01*
X106079251Y-85833695D01*
X106079548Y-85838848D01*
X106079548Y-85838851D01*
X106085011Y-85933590D01*
X106092110Y-86056715D01*
X106093247Y-86061761D01*
X106093248Y-86061767D01*
X106113119Y-86149939D01*
X106141222Y-86274639D01*
X106193727Y-86403944D01*
X106218662Y-86465351D01*
X106225266Y-86481616D01*
X106258923Y-86536540D01*
X106335072Y-86660803D01*
X106341987Y-86672088D01*
X106488250Y-86840938D01*
X106660126Y-86983632D01*
X106730595Y-87024811D01*
X106733445Y-87026476D01*
X106782169Y-87078114D01*
X106795240Y-87147897D01*
X106768509Y-87213669D01*
X106728055Y-87247027D01*
X106715607Y-87253507D01*
X106711474Y-87256610D01*
X106711471Y-87256612D01*
X106687247Y-87274800D01*
X106536965Y-87387635D01*
X106382629Y-87549138D01*
X106256743Y-87733680D01*
X106162688Y-87936305D01*
X106102989Y-88151570D01*
X106079251Y-88373695D01*
X106079548Y-88378848D01*
X106079548Y-88378851D01*
X106085011Y-88473590D01*
X106092110Y-88596715D01*
X106093247Y-88601761D01*
X106093248Y-88601767D01*
X106113119Y-88689939D01*
X106141222Y-88814639D01*
X106225266Y-89021616D01*
X106341987Y-89212088D01*
X106488250Y-89380938D01*
X106660126Y-89523632D01*
X106730595Y-89564811D01*
X106733445Y-89566476D01*
X106782169Y-89618114D01*
X106795240Y-89687897D01*
X106768509Y-89753669D01*
X106728055Y-89787027D01*
X106715607Y-89793507D01*
X106711474Y-89796610D01*
X106711471Y-89796612D01*
X106541100Y-89924530D01*
X106536965Y-89927635D01*
X106533393Y-89931373D01*
X106400535Y-90070401D01*
X106382629Y-90089138D01*
X106256743Y-90273680D01*
X106241003Y-90307590D01*
X106167334Y-90466297D01*
X106162688Y-90476305D01*
X106102989Y-90691570D01*
X106079251Y-90913695D01*
X106079548Y-90918848D01*
X106079548Y-90918851D01*
X106085011Y-91013590D01*
X106092110Y-91136715D01*
X106093247Y-91141761D01*
X106093248Y-91141767D01*
X106109715Y-91214834D01*
X106141222Y-91354639D01*
X106179461Y-91448811D01*
X106220872Y-91550794D01*
X106225266Y-91561616D01*
X106227965Y-91566020D01*
X106298336Y-91680855D01*
X106341987Y-91752088D01*
X106488250Y-91920938D01*
X106660126Y-92063632D01*
X106721447Y-92099465D01*
X106733445Y-92106476D01*
X106782169Y-92158114D01*
X106795240Y-92227897D01*
X106768509Y-92293669D01*
X106728055Y-92327027D01*
X106715607Y-92333507D01*
X106711474Y-92336610D01*
X106711471Y-92336612D01*
X106541100Y-92464530D01*
X106536965Y-92467635D01*
X106533393Y-92471373D01*
X106392888Y-92618403D01*
X106382629Y-92629138D01*
X106256743Y-92813680D01*
X106241003Y-92847590D01*
X106167334Y-93006297D01*
X106162688Y-93016305D01*
X106102989Y-93231570D01*
X106079251Y-93453695D01*
X69508500Y-93453695D01*
X69508500Y-75056500D01*
X69528502Y-74988379D01*
X69582158Y-74941886D01*
X69634500Y-74930500D01*
X243365500Y-74930500D01*
X243433621Y-74950502D01*
G37*
%TD.AperFunction*%
%TD*%
M02*
