%TF.GenerationSoftware,KiCad,Pcbnew,(6.0.9)*%
%TF.CreationDate,2023-11-02T17:09:57-06:00*%
%TF.ProjectId,MagicWand_Motherboard,4d616769-6357-4616-9e64-5f4d6f746865,rev?*%
%TF.SameCoordinates,Original*%
%TF.FileFunction,Legend,Bot*%
%TF.FilePolarity,Positive*%
%FSLAX46Y46*%
G04 Gerber Fmt 4.6, Leading zero omitted, Abs format (unit mm)*
G04 Created by KiCad (PCBNEW (6.0.9)) date 2023-11-02 17:09:57*
%MOMM*%
%LPD*%
G01*
G04 APERTURE LIST*
%ADD10C,0.150000*%
%ADD11C,0.120000*%
G04 APERTURE END LIST*
D10*
X103957523Y-94019619D02*
X104528952Y-94019619D01*
X104243238Y-93019619D02*
X104243238Y-94019619D01*
X104767047Y-93019619D02*
X105290857Y-93686285D01*
X104767047Y-93686285D02*
X105290857Y-93019619D01*
X102806666Y-82907238D02*
X102949523Y-82859619D01*
X103187619Y-82859619D01*
X103282857Y-82907238D01*
X103330476Y-82954857D01*
X103378095Y-83050095D01*
X103378095Y-83145333D01*
X103330476Y-83240571D01*
X103282857Y-83288190D01*
X103187619Y-83335809D01*
X102997142Y-83383428D01*
X102901904Y-83431047D01*
X102854285Y-83478666D01*
X102806666Y-83573904D01*
X102806666Y-83669142D01*
X102854285Y-83764380D01*
X102901904Y-83812000D01*
X102997142Y-83859619D01*
X103235238Y-83859619D01*
X103378095Y-83812000D01*
X103711428Y-83859619D02*
X103949523Y-82859619D01*
X104140000Y-83573904D01*
X104330476Y-82859619D01*
X104568571Y-83859619D01*
X104901904Y-83764380D02*
X104949523Y-83812000D01*
X105044761Y-83859619D01*
X105282857Y-83859619D01*
X105378095Y-83812000D01*
X105425714Y-83764380D01*
X105473333Y-83669142D01*
X105473333Y-83573904D01*
X105425714Y-83431047D01*
X104854285Y-82859619D01*
X105473333Y-82859619D01*
X226052000Y-97281904D02*
X226099619Y-97377142D01*
X226099619Y-97520000D01*
X226052000Y-97662857D01*
X225956761Y-97758095D01*
X225861523Y-97805714D01*
X225671047Y-97853333D01*
X225528190Y-97853333D01*
X225337714Y-97805714D01*
X225242476Y-97758095D01*
X225147238Y-97662857D01*
X225099619Y-97520000D01*
X225099619Y-97424761D01*
X225147238Y-97281904D01*
X225194857Y-97234285D01*
X225528190Y-97234285D01*
X225528190Y-97424761D01*
X225099619Y-96805714D02*
X226099619Y-96805714D01*
X225099619Y-96234285D01*
X226099619Y-96234285D01*
X225099619Y-95758095D02*
X226099619Y-95758095D01*
X226099619Y-95520000D01*
X226052000Y-95377142D01*
X225956761Y-95281904D01*
X225861523Y-95234285D01*
X225671047Y-95186666D01*
X225528190Y-95186666D01*
X225337714Y-95234285D01*
X225242476Y-95281904D01*
X225147238Y-95377142D01*
X225099619Y-95520000D01*
X225099619Y-95758095D01*
X102806666Y-87987238D02*
X102949523Y-87939619D01*
X103187619Y-87939619D01*
X103282857Y-87987238D01*
X103330476Y-88034857D01*
X103378095Y-88130095D01*
X103378095Y-88225333D01*
X103330476Y-88320571D01*
X103282857Y-88368190D01*
X103187619Y-88415809D01*
X102997142Y-88463428D01*
X102901904Y-88511047D01*
X102854285Y-88558666D01*
X102806666Y-88653904D01*
X102806666Y-88749142D01*
X102854285Y-88844380D01*
X102901904Y-88892000D01*
X102997142Y-88939619D01*
X103235238Y-88939619D01*
X103378095Y-88892000D01*
X103711428Y-88939619D02*
X103949523Y-87939619D01*
X104140000Y-88653904D01*
X104330476Y-87939619D01*
X104568571Y-88939619D01*
X105378095Y-88606285D02*
X105378095Y-87939619D01*
X105140000Y-88987238D02*
X104901904Y-88272952D01*
X105520952Y-88272952D01*
X103378095Y-96512000D02*
X103282857Y-96559619D01*
X103140000Y-96559619D01*
X102997142Y-96512000D01*
X102901904Y-96416761D01*
X102854285Y-96321523D01*
X102806666Y-96131047D01*
X102806666Y-95988190D01*
X102854285Y-95797714D01*
X102901904Y-95702476D01*
X102997142Y-95607238D01*
X103140000Y-95559619D01*
X103235238Y-95559619D01*
X103378095Y-95607238D01*
X103425714Y-95654857D01*
X103425714Y-95988190D01*
X103235238Y-95988190D01*
X103854285Y-95559619D02*
X103854285Y-96559619D01*
X104425714Y-95559619D01*
X104425714Y-96559619D01*
X104901904Y-95559619D02*
X104901904Y-96559619D01*
X105140000Y-96559619D01*
X105282857Y-96512000D01*
X105378095Y-96416761D01*
X105425714Y-96321523D01*
X105473333Y-96131047D01*
X105473333Y-95988190D01*
X105425714Y-95797714D01*
X105378095Y-95702476D01*
X105282857Y-95607238D01*
X105140000Y-95559619D01*
X104901904Y-95559619D01*
X102806666Y-78779619D02*
X103140000Y-77779619D01*
X103473333Y-78779619D01*
X104378095Y-77874857D02*
X104330476Y-77827238D01*
X104187619Y-77779619D01*
X104092380Y-77779619D01*
X103949523Y-77827238D01*
X103854285Y-77922476D01*
X103806666Y-78017714D01*
X103759047Y-78208190D01*
X103759047Y-78351047D01*
X103806666Y-78541523D01*
X103854285Y-78636761D01*
X103949523Y-78732000D01*
X104092380Y-78779619D01*
X104187619Y-78779619D01*
X104330476Y-78732000D01*
X104378095Y-78684380D01*
X105378095Y-77874857D02*
X105330476Y-77827238D01*
X105187619Y-77779619D01*
X105092380Y-77779619D01*
X104949523Y-77827238D01*
X104854285Y-77922476D01*
X104806666Y-78017714D01*
X104759047Y-78208190D01*
X104759047Y-78351047D01*
X104806666Y-78541523D01*
X104854285Y-78636761D01*
X104949523Y-78732000D01*
X105092380Y-78779619D01*
X105187619Y-78779619D01*
X105330476Y-78732000D01*
X105378095Y-78684380D01*
X102806666Y-85447238D02*
X102949523Y-85399619D01*
X103187619Y-85399619D01*
X103282857Y-85447238D01*
X103330476Y-85494857D01*
X103378095Y-85590095D01*
X103378095Y-85685333D01*
X103330476Y-85780571D01*
X103282857Y-85828190D01*
X103187619Y-85875809D01*
X102997142Y-85923428D01*
X102901904Y-85971047D01*
X102854285Y-86018666D01*
X102806666Y-86113904D01*
X102806666Y-86209142D01*
X102854285Y-86304380D01*
X102901904Y-86352000D01*
X102997142Y-86399619D01*
X103235238Y-86399619D01*
X103378095Y-86352000D01*
X103711428Y-86399619D02*
X103949523Y-85399619D01*
X104140000Y-86113904D01*
X104330476Y-85399619D01*
X104568571Y-86399619D01*
X104854285Y-86399619D02*
X105473333Y-86399619D01*
X105140000Y-86018666D01*
X105282857Y-86018666D01*
X105378095Y-85971047D01*
X105425714Y-85923428D01*
X105473333Y-85828190D01*
X105473333Y-85590095D01*
X105425714Y-85494857D01*
X105378095Y-85447238D01*
X105282857Y-85399619D01*
X104997142Y-85399619D01*
X104901904Y-85447238D01*
X104854285Y-85494857D01*
X104552761Y-90479619D02*
X104219428Y-90955809D01*
X103981333Y-90479619D02*
X103981333Y-91479619D01*
X104362285Y-91479619D01*
X104457523Y-91432000D01*
X104505142Y-91384380D01*
X104552761Y-91289142D01*
X104552761Y-91146285D01*
X104505142Y-91051047D01*
X104457523Y-91003428D01*
X104362285Y-90955809D01*
X103981333Y-90955809D01*
X104886095Y-90479619D02*
X105409904Y-91146285D01*
X104886095Y-91146285D02*
X105409904Y-90479619D01*
X102806666Y-80367238D02*
X102949523Y-80319619D01*
X103187619Y-80319619D01*
X103282857Y-80367238D01*
X103330476Y-80414857D01*
X103378095Y-80510095D01*
X103378095Y-80605333D01*
X103330476Y-80700571D01*
X103282857Y-80748190D01*
X103187619Y-80795809D01*
X102997142Y-80843428D01*
X102901904Y-80891047D01*
X102854285Y-80938666D01*
X102806666Y-81033904D01*
X102806666Y-81129142D01*
X102854285Y-81224380D01*
X102901904Y-81272000D01*
X102997142Y-81319619D01*
X103235238Y-81319619D01*
X103378095Y-81272000D01*
X103711428Y-81319619D02*
X103949523Y-80319619D01*
X104140000Y-81033904D01*
X104330476Y-80319619D01*
X104568571Y-81319619D01*
X105473333Y-80319619D02*
X104901904Y-80319619D01*
X105187619Y-80319619D02*
X105187619Y-81319619D01*
X105092380Y-81176761D01*
X104997142Y-81081523D01*
X104901904Y-81033904D01*
%TO.C,U1*%
X222559619Y-96750095D02*
X223559619Y-96750095D01*
X223559619Y-96512000D01*
X223512000Y-96369142D01*
X223416761Y-96273904D01*
X223321523Y-96226285D01*
X223131047Y-96178666D01*
X222988190Y-96178666D01*
X222797714Y-96226285D01*
X222702476Y-96273904D01*
X222607238Y-96369142D01*
X222559619Y-96512000D01*
X222559619Y-96750095D01*
X222559619Y-95226285D02*
X222559619Y-95797714D01*
X222559619Y-95512000D02*
X223559619Y-95512000D01*
X223416761Y-95607238D01*
X223321523Y-95702476D01*
X223273904Y-95797714D01*
X230227238Y-78914476D02*
X230179619Y-78771619D01*
X230179619Y-78533523D01*
X230227238Y-78438285D01*
X230274857Y-78390666D01*
X230370095Y-78343047D01*
X230465333Y-78343047D01*
X230560571Y-78390666D01*
X230608190Y-78438285D01*
X230655809Y-78533523D01*
X230703428Y-78724000D01*
X230751047Y-78819238D01*
X230798666Y-78866857D01*
X230893904Y-78914476D01*
X230989142Y-78914476D01*
X231084380Y-78866857D01*
X231132000Y-78819238D01*
X231179619Y-78724000D01*
X231179619Y-78485904D01*
X231132000Y-78343047D01*
X230274857Y-77343047D02*
X230227238Y-77390666D01*
X230179619Y-77533523D01*
X230179619Y-77628761D01*
X230227238Y-77771619D01*
X230322476Y-77866857D01*
X230417714Y-77914476D01*
X230608190Y-77962095D01*
X230751047Y-77962095D01*
X230941523Y-77914476D01*
X231036761Y-77866857D01*
X231132000Y-77771619D01*
X231179619Y-77628761D01*
X231179619Y-77533523D01*
X231132000Y-77390666D01*
X231084380Y-77343047D01*
X230179619Y-76438285D02*
X230179619Y-76914476D01*
X231179619Y-76914476D01*
X228639619Y-96702476D02*
X228639619Y-96131047D01*
X227639619Y-96416761D02*
X228639619Y-96416761D01*
X227639619Y-95892952D02*
X228306285Y-95369142D01*
X228306285Y-95892952D02*
X227639619Y-95369142D01*
X230179619Y-96107238D02*
X230655809Y-96440571D01*
X230179619Y-96678666D02*
X231179619Y-96678666D01*
X231179619Y-96297714D01*
X231132000Y-96202476D01*
X231084380Y-96154857D01*
X230989142Y-96107238D01*
X230846285Y-96107238D01*
X230751047Y-96154857D01*
X230703428Y-96202476D01*
X230655809Y-96297714D01*
X230655809Y-96678666D01*
X230179619Y-95773904D02*
X230846285Y-95250095D01*
X230846285Y-95773904D02*
X230179619Y-95250095D01*
X233719619Y-97853333D02*
X232719619Y-97520000D01*
X233719619Y-97186666D01*
X232814857Y-96281904D02*
X232767238Y-96329523D01*
X232719619Y-96472380D01*
X232719619Y-96567619D01*
X232767238Y-96710476D01*
X232862476Y-96805714D01*
X232957714Y-96853333D01*
X233148190Y-96900952D01*
X233291047Y-96900952D01*
X233481523Y-96853333D01*
X233576761Y-96805714D01*
X233672000Y-96710476D01*
X233719619Y-96567619D01*
X233719619Y-96472380D01*
X233672000Y-96329523D01*
X233624380Y-96281904D01*
X232814857Y-95281904D02*
X232767238Y-95329523D01*
X232719619Y-95472380D01*
X232719619Y-95567619D01*
X232767238Y-95710476D01*
X232862476Y-95805714D01*
X232957714Y-95853333D01*
X233148190Y-95900952D01*
X233291047Y-95900952D01*
X233481523Y-95853333D01*
X233576761Y-95805714D01*
X233672000Y-95710476D01*
X233719619Y-95567619D01*
X233719619Y-95472380D01*
X233672000Y-95329523D01*
X233624380Y-95281904D01*
X226052000Y-97281904D02*
X226099619Y-97377142D01*
X226099619Y-97520000D01*
X226052000Y-97662857D01*
X225956761Y-97758095D01*
X225861523Y-97805714D01*
X225671047Y-97853333D01*
X225528190Y-97853333D01*
X225337714Y-97805714D01*
X225242476Y-97758095D01*
X225147238Y-97662857D01*
X225099619Y-97520000D01*
X225099619Y-97424761D01*
X225147238Y-97281904D01*
X225194857Y-97234285D01*
X225528190Y-97234285D01*
X225528190Y-97424761D01*
X225099619Y-96805714D02*
X226099619Y-96805714D01*
X225099619Y-96234285D01*
X226099619Y-96234285D01*
X225099619Y-95758095D02*
X226099619Y-95758095D01*
X226099619Y-95520000D01*
X226052000Y-95377142D01*
X225956761Y-95281904D01*
X225861523Y-95234285D01*
X225671047Y-95186666D01*
X225528190Y-95186666D01*
X225337714Y-95234285D01*
X225242476Y-95281904D01*
X225147238Y-95377142D01*
X225099619Y-95520000D01*
X225099619Y-95758095D01*
X226052000Y-78485904D02*
X226099619Y-78581142D01*
X226099619Y-78724000D01*
X226052000Y-78866857D01*
X225956761Y-78962095D01*
X225861523Y-79009714D01*
X225671047Y-79057333D01*
X225528190Y-79057333D01*
X225337714Y-79009714D01*
X225242476Y-78962095D01*
X225147238Y-78866857D01*
X225099619Y-78724000D01*
X225099619Y-78628761D01*
X225147238Y-78485904D01*
X225194857Y-78438285D01*
X225528190Y-78438285D01*
X225528190Y-78628761D01*
X225099619Y-78009714D02*
X226099619Y-78009714D01*
X225099619Y-77438285D01*
X226099619Y-77438285D01*
X225099619Y-76962095D02*
X226099619Y-76962095D01*
X226099619Y-76724000D01*
X226052000Y-76581142D01*
X225956761Y-76485904D01*
X225861523Y-76438285D01*
X225671047Y-76390666D01*
X225528190Y-76390666D01*
X225337714Y-76438285D01*
X225242476Y-76485904D01*
X225147238Y-76581142D01*
X225099619Y-76724000D01*
X225099619Y-76962095D01*
X235259619Y-96750095D02*
X236259619Y-96750095D01*
X236259619Y-96512000D01*
X236212000Y-96369142D01*
X236116761Y-96273904D01*
X236021523Y-96226285D01*
X235831047Y-96178666D01*
X235688190Y-96178666D01*
X235497714Y-96226285D01*
X235402476Y-96273904D01*
X235307238Y-96369142D01*
X235259619Y-96512000D01*
X235259619Y-96750095D01*
X236259619Y-95559619D02*
X236259619Y-95464380D01*
X236212000Y-95369142D01*
X236164380Y-95321523D01*
X236069142Y-95273904D01*
X235878666Y-95226285D01*
X235640571Y-95226285D01*
X235450095Y-95273904D01*
X235354857Y-95321523D01*
X235307238Y-95369142D01*
X235259619Y-95464380D01*
X235259619Y-95559619D01*
X235307238Y-95654857D01*
X235354857Y-95702476D01*
X235450095Y-95750095D01*
X235640571Y-95797714D01*
X235878666Y-95797714D01*
X236069142Y-95750095D01*
X236164380Y-95702476D01*
X236212000Y-95654857D01*
X236259619Y-95559619D01*
X222559619Y-78970095D02*
X223559619Y-78970095D01*
X223559619Y-78732000D01*
X223512000Y-78589142D01*
X223416761Y-78493904D01*
X223321523Y-78446285D01*
X223131047Y-78398666D01*
X222988190Y-78398666D01*
X222797714Y-78446285D01*
X222702476Y-78493904D01*
X222607238Y-78589142D01*
X222559619Y-78732000D01*
X222559619Y-78970095D01*
X223559619Y-78065333D02*
X223559619Y-77446285D01*
X223178666Y-77779619D01*
X223178666Y-77636761D01*
X223131047Y-77541523D01*
X223083428Y-77493904D01*
X222988190Y-77446285D01*
X222750095Y-77446285D01*
X222654857Y-77493904D01*
X222607238Y-77541523D01*
X222559619Y-77636761D01*
X222559619Y-77922476D01*
X222607238Y-78017714D01*
X222654857Y-78065333D01*
X235259619Y-78970095D02*
X236259619Y-78970095D01*
X236259619Y-78732000D01*
X236212000Y-78589142D01*
X236116761Y-78493904D01*
X236021523Y-78446285D01*
X235831047Y-78398666D01*
X235688190Y-78398666D01*
X235497714Y-78446285D01*
X235402476Y-78493904D01*
X235307238Y-78589142D01*
X235259619Y-78732000D01*
X235259619Y-78970095D01*
X236164380Y-78017714D02*
X236212000Y-77970095D01*
X236259619Y-77874857D01*
X236259619Y-77636761D01*
X236212000Y-77541523D01*
X236164380Y-77493904D01*
X236069142Y-77446285D01*
X235973904Y-77446285D01*
X235831047Y-77493904D01*
X235259619Y-78065333D01*
X235259619Y-77446285D01*
X233719619Y-79057333D02*
X232719619Y-78724000D01*
X233719619Y-78390666D01*
X232814857Y-77485904D02*
X232767238Y-77533523D01*
X232719619Y-77676380D01*
X232719619Y-77771619D01*
X232767238Y-77914476D01*
X232862476Y-78009714D01*
X232957714Y-78057333D01*
X233148190Y-78104952D01*
X233291047Y-78104952D01*
X233481523Y-78057333D01*
X233576761Y-78009714D01*
X233672000Y-77914476D01*
X233719619Y-77771619D01*
X233719619Y-77676380D01*
X233672000Y-77533523D01*
X233624380Y-77485904D01*
X232814857Y-76485904D02*
X232767238Y-76533523D01*
X232719619Y-76676380D01*
X232719619Y-76771619D01*
X232767238Y-76914476D01*
X232862476Y-77009714D01*
X232957714Y-77057333D01*
X233148190Y-77104952D01*
X233291047Y-77104952D01*
X233481523Y-77057333D01*
X233576761Y-77009714D01*
X233672000Y-76914476D01*
X233719619Y-76771619D01*
X233719619Y-76676380D01*
X233672000Y-76533523D01*
X233624380Y-76485904D01*
X227687238Y-78938285D02*
X227639619Y-78795428D01*
X227639619Y-78557333D01*
X227687238Y-78462095D01*
X227734857Y-78414476D01*
X227830095Y-78366857D01*
X227925333Y-78366857D01*
X228020571Y-78414476D01*
X228068190Y-78462095D01*
X228115809Y-78557333D01*
X228163428Y-78747809D01*
X228211047Y-78843047D01*
X228258666Y-78890666D01*
X228353904Y-78938285D01*
X228449142Y-78938285D01*
X228544380Y-78890666D01*
X228592000Y-78843047D01*
X228639619Y-78747809D01*
X228639619Y-78509714D01*
X228592000Y-78366857D01*
X227639619Y-77938285D02*
X228639619Y-77938285D01*
X228639619Y-77700190D01*
X228592000Y-77557333D01*
X228496761Y-77462095D01*
X228401523Y-77414476D01*
X228211047Y-77366857D01*
X228068190Y-77366857D01*
X227877714Y-77414476D01*
X227782476Y-77462095D01*
X227687238Y-77557333D01*
X227639619Y-77700190D01*
X227639619Y-77938285D01*
X227925333Y-76985904D02*
X227925333Y-76509714D01*
X227639619Y-77081142D02*
X228639619Y-76747809D01*
X227639619Y-76414476D01*
%TO.C,J1*%
X107775333Y-75369380D02*
X107775333Y-76083666D01*
X107822952Y-76226523D01*
X107918190Y-76321761D01*
X108061047Y-76369380D01*
X108156285Y-76369380D01*
X106775333Y-76369380D02*
X107346761Y-76369380D01*
X107061047Y-76369380D02*
X107061047Y-75369380D01*
X107156285Y-75512238D01*
X107251523Y-75607476D01*
X107346761Y-75655095D01*
D11*
%TO.C,U1*%
X236862000Y-94622000D02*
X221862000Y-94622000D01*
X221862000Y-94622000D02*
X221862000Y-79622000D01*
X221862000Y-79622000D02*
X236862000Y-79622000D01*
X236862000Y-79622000D02*
X236862000Y-94622000D01*
%TO.C,J1*%
X106112000Y-79517000D02*
X106112000Y-97357000D01*
X108772000Y-78247000D02*
X108772000Y-76917000D01*
X108772000Y-76917000D02*
X107442000Y-76917000D01*
X108772000Y-97357000D02*
X106112000Y-97357000D01*
X108772000Y-79517000D02*
X108772000Y-97357000D01*
X108772000Y-79517000D02*
X106112000Y-79517000D01*
%TD*%
M02*
