%TF.GenerationSoftware,KiCad,Pcbnew,(6.0.9)*%
%TF.CreationDate,2023-11-02T17:09:57-06:00*%
%TF.ProjectId,MagicWand_Motherboard,4d616769-6357-4616-9e64-5f4d6f746865,rev?*%
%TF.SameCoordinates,Original*%
%TF.FileFunction,Legend,Top*%
%TF.FilePolarity,Positive*%
%FSLAX46Y46*%
G04 Gerber Fmt 4.6, Leading zero omitted, Abs format (unit mm)*
G04 Created by KiCad (PCBNEW (6.0.9)) date 2023-11-02 17:09:57*
%MOMM*%
%LPD*%
G01*
G04 APERTURE LIST*
%ADD10C,0.150000*%
%ADD11C,0.120000*%
G04 APERTURE END LIST*
D10*
X70200761Y-98242380D02*
X70200761Y-97242380D01*
X70438857Y-97242380D01*
X70581714Y-97290000D01*
X70676952Y-97385238D01*
X70724571Y-97480476D01*
X70772190Y-97670952D01*
X70772190Y-97813809D01*
X70724571Y-98004285D01*
X70676952Y-98099523D01*
X70581714Y-98194761D01*
X70438857Y-98242380D01*
X70200761Y-98242380D01*
X71581714Y-98194761D02*
X71486476Y-98242380D01*
X71295999Y-98242380D01*
X71200761Y-98194761D01*
X71153142Y-98099523D01*
X71153142Y-97718571D01*
X71200761Y-97623333D01*
X71295999Y-97575714D01*
X71486476Y-97575714D01*
X71581714Y-97623333D01*
X71629333Y-97718571D01*
X71629333Y-97813809D01*
X71153142Y-97909047D01*
X72010285Y-98194761D02*
X72105523Y-98242380D01*
X72295999Y-98242380D01*
X72391238Y-98194761D01*
X72438857Y-98099523D01*
X72438857Y-98051904D01*
X72391238Y-97956666D01*
X72295999Y-97909047D01*
X72153142Y-97909047D01*
X72057904Y-97861428D01*
X72010285Y-97766190D01*
X72010285Y-97718571D01*
X72057904Y-97623333D01*
X72153142Y-97575714D01*
X72295999Y-97575714D01*
X72391238Y-97623333D01*
X72867428Y-98242380D02*
X72867428Y-97575714D01*
X72867428Y-97242380D02*
X72819809Y-97290000D01*
X72867428Y-97337619D01*
X72915047Y-97290000D01*
X72867428Y-97242380D01*
X72867428Y-97337619D01*
X73772190Y-97575714D02*
X73772190Y-98385238D01*
X73724571Y-98480476D01*
X73676952Y-98528095D01*
X73581714Y-98575714D01*
X73438857Y-98575714D01*
X73343619Y-98528095D01*
X73772190Y-98194761D02*
X73676952Y-98242380D01*
X73486476Y-98242380D01*
X73391238Y-98194761D01*
X73343619Y-98147142D01*
X73295999Y-98051904D01*
X73295999Y-97766190D01*
X73343619Y-97670952D01*
X73391238Y-97623333D01*
X73486476Y-97575714D01*
X73676952Y-97575714D01*
X73772190Y-97623333D01*
X74248380Y-97575714D02*
X74248380Y-98242380D01*
X74248380Y-97670952D02*
X74295999Y-97623333D01*
X74391238Y-97575714D01*
X74534095Y-97575714D01*
X74629333Y-97623333D01*
X74676952Y-97718571D01*
X74676952Y-98242380D01*
X75534095Y-98194761D02*
X75438857Y-98242380D01*
X75248380Y-98242380D01*
X75153142Y-98194761D01*
X75105523Y-98099523D01*
X75105523Y-97718571D01*
X75153142Y-97623333D01*
X75248380Y-97575714D01*
X75438857Y-97575714D01*
X75534095Y-97623333D01*
X75581714Y-97718571D01*
X75581714Y-97813809D01*
X75105523Y-97909047D01*
X76438857Y-98242380D02*
X76438857Y-97242380D01*
X76438857Y-98194761D02*
X76343619Y-98242380D01*
X76153142Y-98242380D01*
X76057904Y-98194761D01*
X76010285Y-98147142D01*
X75962666Y-98051904D01*
X75962666Y-97766190D01*
X76010285Y-97670952D01*
X76057904Y-97623333D01*
X76153142Y-97575714D01*
X76343619Y-97575714D01*
X76438857Y-97623333D01*
X78010285Y-97718571D02*
X78153142Y-97766190D01*
X78200761Y-97813809D01*
X78248380Y-97909047D01*
X78248380Y-98051904D01*
X78200761Y-98147142D01*
X78153142Y-98194761D01*
X78057904Y-98242380D01*
X77676952Y-98242380D01*
X77676952Y-97242380D01*
X78010285Y-97242380D01*
X78105523Y-97290000D01*
X78153142Y-97337619D01*
X78200761Y-97432857D01*
X78200761Y-97528095D01*
X78153142Y-97623333D01*
X78105523Y-97670952D01*
X78010285Y-97718571D01*
X77676952Y-97718571D01*
X78581714Y-97575714D02*
X78819809Y-98242380D01*
X79057904Y-97575714D02*
X78819809Y-98242380D01*
X78724571Y-98480476D01*
X78676952Y-98528095D01*
X78581714Y-98575714D01*
X79438857Y-98147142D02*
X79486476Y-98194761D01*
X79438857Y-98242380D01*
X79391238Y-98194761D01*
X79438857Y-98147142D01*
X79438857Y-98242380D01*
X79438857Y-97623333D02*
X79486476Y-97670952D01*
X79438857Y-97718571D01*
X79391238Y-97670952D01*
X79438857Y-97623333D01*
X79438857Y-97718571D01*
X80629333Y-98194761D02*
X80772190Y-98242380D01*
X81010285Y-98242380D01*
X81105523Y-98194761D01*
X81153142Y-98147142D01*
X81200761Y-98051904D01*
X81200761Y-97956666D01*
X81153142Y-97861428D01*
X81105523Y-97813809D01*
X81010285Y-97766190D01*
X80819809Y-97718571D01*
X80724571Y-97670952D01*
X80676952Y-97623333D01*
X80629333Y-97528095D01*
X80629333Y-97432857D01*
X80676952Y-97337619D01*
X80724571Y-97290000D01*
X80819809Y-97242380D01*
X81057904Y-97242380D01*
X81200761Y-97290000D01*
X82010285Y-98194761D02*
X81915047Y-98242380D01*
X81724571Y-98242380D01*
X81629333Y-98194761D01*
X81581714Y-98099523D01*
X81581714Y-97718571D01*
X81629333Y-97623333D01*
X81724571Y-97575714D01*
X81915047Y-97575714D01*
X82010285Y-97623333D01*
X82057904Y-97718571D01*
X82057904Y-97813809D01*
X81581714Y-97909047D01*
X82915047Y-98242380D02*
X82915047Y-97718571D01*
X82867428Y-97623333D01*
X82772190Y-97575714D01*
X82581714Y-97575714D01*
X82486476Y-97623333D01*
X82915047Y-98194761D02*
X82819809Y-98242380D01*
X82581714Y-98242380D01*
X82486476Y-98194761D01*
X82438857Y-98099523D01*
X82438857Y-98004285D01*
X82486476Y-97909047D01*
X82581714Y-97861428D01*
X82819809Y-97861428D01*
X82915047Y-97813809D01*
X83391238Y-97575714D02*
X83391238Y-98242380D01*
X83391238Y-97670952D02*
X83438857Y-97623333D01*
X83534095Y-97575714D01*
X83676952Y-97575714D01*
X83772190Y-97623333D01*
X83819809Y-97718571D01*
X83819809Y-98242380D01*
X85057904Y-98242380D02*
X85057904Y-97242380D01*
X85629333Y-98242380D02*
X85200761Y-97670952D01*
X85629333Y-97242380D02*
X85057904Y-97813809D01*
X86486476Y-98242380D02*
X86486476Y-97718571D01*
X86438857Y-97623333D01*
X86343619Y-97575714D01*
X86153142Y-97575714D01*
X86057904Y-97623333D01*
X86486476Y-98194761D02*
X86391238Y-98242380D01*
X86153142Y-98242380D01*
X86057904Y-98194761D01*
X86010285Y-98099523D01*
X86010285Y-98004285D01*
X86057904Y-97909047D01*
X86153142Y-97861428D01*
X86391238Y-97861428D01*
X86486476Y-97813809D01*
X87391238Y-98242380D02*
X87391238Y-97242380D01*
X87391238Y-98194761D02*
X87295999Y-98242380D01*
X87105523Y-98242380D01*
X87010285Y-98194761D01*
X86962666Y-98147142D01*
X86915047Y-98051904D01*
X86915047Y-97766190D01*
X86962666Y-97670952D01*
X87010285Y-97623333D01*
X87105523Y-97575714D01*
X87295999Y-97575714D01*
X87391238Y-97623333D01*
X87867428Y-98242380D02*
X87867428Y-97242380D01*
X87962666Y-97861428D02*
X88248380Y-98242380D01*
X88248380Y-97575714D02*
X87867428Y-97956666D01*
X88676952Y-98242380D02*
X88676952Y-97242380D01*
X89105523Y-98242380D02*
X89105523Y-97718571D01*
X89057904Y-97623333D01*
X88962666Y-97575714D01*
X88819809Y-97575714D01*
X88724571Y-97623333D01*
X88676952Y-97670952D01*
X89724571Y-98242380D02*
X89629333Y-98194761D01*
X89581714Y-98147142D01*
X89534095Y-98051904D01*
X89534095Y-97766190D01*
X89581714Y-97670952D01*
X89629333Y-97623333D01*
X89724571Y-97575714D01*
X89867428Y-97575714D01*
X89962666Y-97623333D01*
X90010285Y-97670952D01*
X90057904Y-97766190D01*
X90057904Y-98051904D01*
X90010285Y-98147142D01*
X89962666Y-98194761D01*
X89867428Y-98242380D01*
X89724571Y-98242380D01*
X90915047Y-98242380D02*
X90915047Y-97242380D01*
X90915047Y-98194761D02*
X90819809Y-98242380D01*
X90629333Y-98242380D01*
X90534095Y-98194761D01*
X90486476Y-98147142D01*
X90438857Y-98051904D01*
X90438857Y-97766190D01*
X90486476Y-97670952D01*
X90534095Y-97623333D01*
X90629333Y-97575714D01*
X90819809Y-97575714D01*
X90915047Y-97623333D01*
X91819809Y-98242380D02*
X91819809Y-97718571D01*
X91772190Y-97623333D01*
X91676952Y-97575714D01*
X91486476Y-97575714D01*
X91391238Y-97623333D01*
X91819809Y-98194761D02*
X91724571Y-98242380D01*
X91486476Y-98242380D01*
X91391238Y-98194761D01*
X91343619Y-98099523D01*
X91343619Y-98004285D01*
X91391238Y-97909047D01*
X91486476Y-97861428D01*
X91724571Y-97861428D01*
X91819809Y-97813809D01*
X92200761Y-97575714D02*
X92438857Y-98242380D01*
X92676952Y-97575714D02*
X92438857Y-98242380D01*
X92343619Y-98480476D01*
X92295999Y-98528095D01*
X92200761Y-98575714D01*
X93486476Y-98242380D02*
X93486476Y-97718571D01*
X93438857Y-97623333D01*
X93343619Y-97575714D01*
X93153142Y-97575714D01*
X93057904Y-97623333D01*
X93486476Y-98194761D02*
X93391238Y-98242380D01*
X93153142Y-98242380D01*
X93057904Y-98194761D01*
X93010285Y-98099523D01*
X93010285Y-98004285D01*
X93057904Y-97909047D01*
X93153142Y-97861428D01*
X93391238Y-97861428D01*
X93486476Y-97813809D01*
X93962666Y-97575714D02*
X93962666Y-98242380D01*
X93962666Y-97670952D02*
X94010285Y-97623333D01*
X94105523Y-97575714D01*
X94248380Y-97575714D01*
X94343619Y-97623333D01*
X94391238Y-97718571D01*
X94391238Y-98242380D01*
%TO.C,SW2*%
X154114666Y-93876761D02*
X154257523Y-93924380D01*
X154495619Y-93924380D01*
X154590857Y-93876761D01*
X154638476Y-93829142D01*
X154686095Y-93733904D01*
X154686095Y-93638666D01*
X154638476Y-93543428D01*
X154590857Y-93495809D01*
X154495619Y-93448190D01*
X154305142Y-93400571D01*
X154209904Y-93352952D01*
X154162285Y-93305333D01*
X154114666Y-93210095D01*
X154114666Y-93114857D01*
X154162285Y-93019619D01*
X154209904Y-92972000D01*
X154305142Y-92924380D01*
X154543238Y-92924380D01*
X154686095Y-92972000D01*
X155019428Y-92924380D02*
X155257523Y-93924380D01*
X155448000Y-93210095D01*
X155638476Y-93924380D01*
X155876571Y-92924380D01*
X156209904Y-93019619D02*
X156257523Y-92972000D01*
X156352761Y-92924380D01*
X156590857Y-92924380D01*
X156686095Y-92972000D01*
X156733714Y-93019619D01*
X156781333Y-93114857D01*
X156781333Y-93210095D01*
X156733714Y-93352952D01*
X156162285Y-93924380D01*
X156781333Y-93924380D01*
%TO.C,SW3*%
X120586666Y-81176761D02*
X120729523Y-81224380D01*
X120967619Y-81224380D01*
X121062857Y-81176761D01*
X121110476Y-81129142D01*
X121158095Y-81033904D01*
X121158095Y-80938666D01*
X121110476Y-80843428D01*
X121062857Y-80795809D01*
X120967619Y-80748190D01*
X120777142Y-80700571D01*
X120681904Y-80652952D01*
X120634285Y-80605333D01*
X120586666Y-80510095D01*
X120586666Y-80414857D01*
X120634285Y-80319619D01*
X120681904Y-80272000D01*
X120777142Y-80224380D01*
X121015238Y-80224380D01*
X121158095Y-80272000D01*
X121491428Y-80224380D02*
X121729523Y-81224380D01*
X121920000Y-80510095D01*
X122110476Y-81224380D01*
X122348571Y-80224380D01*
X122634285Y-80224380D02*
X123253333Y-80224380D01*
X122920000Y-80605333D01*
X123062857Y-80605333D01*
X123158095Y-80652952D01*
X123205714Y-80700571D01*
X123253333Y-80795809D01*
X123253333Y-81033904D01*
X123205714Y-81129142D01*
X123158095Y-81176761D01*
X123062857Y-81224380D01*
X122777142Y-81224380D01*
X122681904Y-81176761D01*
X122634285Y-81129142D01*
%TO.C,SW1*%
X154368666Y-81430761D02*
X154511523Y-81478380D01*
X154749619Y-81478380D01*
X154844857Y-81430761D01*
X154892476Y-81383142D01*
X154940095Y-81287904D01*
X154940095Y-81192666D01*
X154892476Y-81097428D01*
X154844857Y-81049809D01*
X154749619Y-81002190D01*
X154559142Y-80954571D01*
X154463904Y-80906952D01*
X154416285Y-80859333D01*
X154368666Y-80764095D01*
X154368666Y-80668857D01*
X154416285Y-80573619D01*
X154463904Y-80526000D01*
X154559142Y-80478380D01*
X154797238Y-80478380D01*
X154940095Y-80526000D01*
X155273428Y-80478380D02*
X155511523Y-81478380D01*
X155702000Y-80764095D01*
X155892476Y-81478380D01*
X156130571Y-80478380D01*
X157035333Y-81478380D02*
X156463904Y-81478380D01*
X156749619Y-81478380D02*
X156749619Y-80478380D01*
X156654380Y-80621238D01*
X156559142Y-80716476D01*
X156463904Y-80764095D01*
%TO.C,SW4*%
X120586666Y-94130761D02*
X120729523Y-94178380D01*
X120967619Y-94178380D01*
X121062857Y-94130761D01*
X121110476Y-94083142D01*
X121158095Y-93987904D01*
X121158095Y-93892666D01*
X121110476Y-93797428D01*
X121062857Y-93749809D01*
X120967619Y-93702190D01*
X120777142Y-93654571D01*
X120681904Y-93606952D01*
X120634285Y-93559333D01*
X120586666Y-93464095D01*
X120586666Y-93368857D01*
X120634285Y-93273619D01*
X120681904Y-93226000D01*
X120777142Y-93178380D01*
X121015238Y-93178380D01*
X121158095Y-93226000D01*
X121491428Y-93178380D02*
X121729523Y-94178380D01*
X121920000Y-93464095D01*
X122110476Y-94178380D01*
X122348571Y-93178380D01*
X123158095Y-93511714D02*
X123158095Y-94178380D01*
X122920000Y-93130761D02*
X122681904Y-93845047D01*
X123300952Y-93845047D01*
D11*
%TO.C,SW2*%
X152304000Y-93472000D02*
X152304000Y-94302000D01*
X140304000Y-93472000D02*
X140304000Y-92642000D01*
X140304000Y-87472000D02*
X140304000Y-89222000D01*
X140304000Y-93472000D02*
X140304000Y-94302000D01*
X152304000Y-99472000D02*
X152304000Y-97722000D01*
X152304000Y-87472000D02*
X140304000Y-87472000D01*
X140304000Y-99472000D02*
X140304000Y-97722000D01*
X152304000Y-99472000D02*
X140304000Y-99472000D01*
X152304000Y-87472000D02*
X152304000Y-89222000D01*
X152304000Y-93472000D02*
X152304000Y-92642000D01*
%TO.C,G\u002A\u002A\u002A*%
G36*
X75596824Y-75804705D02*
G01*
X75757134Y-75815635D01*
X75900435Y-75835953D01*
X76037539Y-75867419D01*
X76179258Y-75911793D01*
X76254614Y-75939141D01*
X76532123Y-76063744D01*
X76789808Y-76220151D01*
X77025093Y-76405626D01*
X77235402Y-76617431D01*
X77418159Y-76852829D01*
X77570788Y-77109085D01*
X77690714Y-77383460D01*
X77732513Y-77509408D01*
X77788232Y-77694692D01*
X77976573Y-77697230D01*
X78209918Y-77719024D01*
X78430365Y-77776890D01*
X78635332Y-77869208D01*
X78822237Y-77994360D01*
X78988500Y-78150726D01*
X79131537Y-78336688D01*
X79209775Y-78470629D01*
X79298827Y-78682755D01*
X79351558Y-78904388D01*
X79367989Y-79130674D01*
X79348140Y-79356755D01*
X79292030Y-79577776D01*
X79204313Y-79780229D01*
X79088326Y-79961668D01*
X78946541Y-80121497D01*
X78783988Y-80255937D01*
X78605692Y-80361211D01*
X78416680Y-80433541D01*
X78300384Y-80459527D01*
X78267755Y-80461676D01*
X78198688Y-80463681D01*
X78095663Y-80465541D01*
X77961159Y-80467258D01*
X77797655Y-80468831D01*
X77607632Y-80470260D01*
X77393568Y-80471546D01*
X77157943Y-80472688D01*
X76903237Y-80473688D01*
X76631929Y-80474546D01*
X76346498Y-80475260D01*
X76049424Y-80475833D01*
X75743186Y-80476263D01*
X75430265Y-80476552D01*
X75113138Y-80476698D01*
X74794287Y-80476704D01*
X74476190Y-80476568D01*
X74161326Y-80476291D01*
X73852176Y-80475873D01*
X73551219Y-80475315D01*
X73260933Y-80474616D01*
X72983799Y-80473778D01*
X72722297Y-80472799D01*
X72478905Y-80471680D01*
X72256103Y-80470422D01*
X72056370Y-80469024D01*
X71882187Y-80467488D01*
X71736032Y-80465812D01*
X71620385Y-80463998D01*
X71537725Y-80462045D01*
X71490532Y-80459954D01*
X71481461Y-80458954D01*
X71289470Y-80400993D01*
X71107766Y-80308210D01*
X70940307Y-80184345D01*
X70791048Y-80033136D01*
X70663949Y-79858323D01*
X70562965Y-79663645D01*
X70520445Y-79550846D01*
X70484942Y-79401787D01*
X70466676Y-79231424D01*
X70465824Y-79053609D01*
X70482563Y-78882194D01*
X70510232Y-78753693D01*
X70593898Y-78528650D01*
X70709228Y-78325904D01*
X70854774Y-78147182D01*
X71029090Y-77994212D01*
X71230728Y-77868720D01*
X71266538Y-77850768D01*
X71407258Y-77786788D01*
X71530027Y-77742516D01*
X71648591Y-77714808D01*
X71776697Y-77700518D01*
X71928089Y-77696501D01*
X71940615Y-77696526D01*
X72085720Y-77700146D01*
X72201040Y-77710451D01*
X72295433Y-77728304D01*
X72311846Y-77732652D01*
X72438474Y-77775443D01*
X72575014Y-77834220D01*
X72707082Y-77901995D01*
X72820295Y-77971777D01*
X72853312Y-77995772D01*
X72955163Y-78073993D01*
X72964770Y-78011343D01*
X73005610Y-77775766D01*
X73052252Y-77571028D01*
X73107579Y-77388997D01*
X73174476Y-77221543D01*
X73255826Y-77060536D01*
X73354514Y-76897846D01*
X73365970Y-76880381D01*
X73546786Y-76641534D01*
X73756274Y-76428730D01*
X73993286Y-76242759D01*
X74256675Y-76084407D01*
X74545294Y-75954465D01*
X74857996Y-75853719D01*
X74861615Y-75852763D01*
X74937012Y-75833807D01*
X75003148Y-75820137D01*
X75069010Y-75810909D01*
X75143581Y-75805279D01*
X75235847Y-75802405D01*
X75354793Y-75801442D01*
X75408692Y-75801401D01*
X75596824Y-75804705D01*
G37*
G36*
X78203323Y-80771153D02*
G01*
X78232017Y-80811863D01*
X78267700Y-80871968D01*
X78306029Y-80943267D01*
X78342663Y-81017559D01*
X78373260Y-81086644D01*
X78393479Y-81142319D01*
X78397345Y-81157332D01*
X78395141Y-81233817D01*
X78358704Y-81302372D01*
X78292875Y-81355204D01*
X78266806Y-81367352D01*
X78204777Y-81389198D01*
X78160628Y-81394248D01*
X78117544Y-81383688D01*
X78105000Y-81378760D01*
X78039068Y-81331687D01*
X77996035Y-81257738D01*
X77984103Y-81207557D01*
X77982250Y-81166740D01*
X77990062Y-81123340D01*
X78010487Y-81068381D01*
X78046472Y-80992887D01*
X78069122Y-80948676D01*
X78110313Y-80872370D01*
X78146940Y-80810139D01*
X78174331Y-80769603D01*
X78185958Y-80758039D01*
X78203323Y-80771153D01*
G37*
G36*
X74955323Y-80845024D02*
G01*
X75048209Y-80880531D01*
X75127376Y-80941244D01*
X75186394Y-81024166D01*
X75218833Y-81126302D01*
X75223077Y-81182650D01*
X75204591Y-81284974D01*
X75153211Y-81376853D01*
X75075052Y-81450144D01*
X74990584Y-81492264D01*
X74898304Y-81512096D01*
X74812438Y-81503133D01*
X74742451Y-81477232D01*
X74652634Y-81417068D01*
X74592977Y-81332211D01*
X74564003Y-81223437D01*
X74562767Y-81210711D01*
X74566928Y-81088255D01*
X74601255Y-80988981D01*
X74658654Y-80919692D01*
X74754116Y-80861608D01*
X74855149Y-80837718D01*
X74955323Y-80845024D01*
G37*
G36*
X71652449Y-80777197D02*
G01*
X71682101Y-80823021D01*
X71720242Y-80888212D01*
X71748334Y-80939203D01*
X71807217Y-81063063D01*
X71836830Y-81163617D01*
X71836945Y-81243700D01*
X71807337Y-81306148D01*
X71747779Y-81353797D01*
X71713997Y-81369987D01*
X71641898Y-81392779D01*
X71582638Y-81390503D01*
X71525914Y-81366774D01*
X71464843Y-81317280D01*
X71434149Y-81250375D01*
X71433828Y-81164268D01*
X71463879Y-81057168D01*
X71524298Y-80927285D01*
X71525203Y-80925590D01*
X71565727Y-80853482D01*
X71601110Y-80797331D01*
X71626673Y-80764193D01*
X71636043Y-80758399D01*
X71652449Y-80777197D01*
G37*
G36*
X76112458Y-80856737D02*
G01*
X76195266Y-80903406D01*
X76261639Y-80970436D01*
X76308432Y-81052031D01*
X76332502Y-81142396D01*
X76330704Y-81235734D01*
X76299893Y-81326249D01*
X76236926Y-81408145D01*
X76221588Y-81421815D01*
X76126337Y-81480260D01*
X76020770Y-81508690D01*
X75915571Y-81505184D01*
X75857713Y-81487233D01*
X75779163Y-81435018D01*
X75713251Y-81358362D01*
X75670582Y-81270929D01*
X75662319Y-81235474D01*
X75662219Y-81118362D01*
X75696164Y-81014487D01*
X75760670Y-80929300D01*
X75852253Y-80868250D01*
X75910115Y-80847668D01*
X76016360Y-80836226D01*
X76112458Y-80856737D01*
G37*
G36*
X74832194Y-83457767D02*
G01*
X74882977Y-83484068D01*
X74903383Y-83520919D01*
X74907087Y-83563902D01*
X74887511Y-83591284D01*
X74838333Y-83608931D01*
X74800966Y-83615887D01*
X74749920Y-83622174D01*
X74724686Y-83614686D01*
X74712617Y-83586570D01*
X74708158Y-83565599D01*
X74697501Y-83501159D01*
X74700263Y-83465915D01*
X74719428Y-83451402D01*
X74749269Y-83449036D01*
X74832194Y-83457767D01*
G37*
G36*
X71058794Y-84166510D02*
G01*
X71057797Y-83928494D01*
X74558769Y-83928494D01*
X74637335Y-83921002D01*
X74643286Y-83920051D01*
X75965538Y-83920051D01*
X75994041Y-83917692D01*
X76317231Y-83917692D01*
X76454000Y-83917692D01*
X76454000Y-83761384D01*
X76455859Y-83688797D01*
X76460799Y-83634137D01*
X76467866Y-83606647D01*
X76470150Y-83605077D01*
X76489488Y-83618289D01*
X76529599Y-83654122D01*
X76584336Y-83706866D01*
X76638410Y-83761384D01*
X76711011Y-83833781D01*
X76764369Y-83880873D01*
X76804503Y-83907172D01*
X76837431Y-83917188D01*
X76846953Y-83917692D01*
X76903384Y-83917692D01*
X76903384Y-83309641D01*
X76756846Y-83321769D01*
X76747077Y-83473815D01*
X76737308Y-83625862D01*
X76581458Y-83468931D01*
X76506049Y-83395425D01*
X76450329Y-83347565D01*
X76408726Y-83321186D01*
X76375665Y-83312124D01*
X76371420Y-83312000D01*
X76317231Y-83312000D01*
X76317231Y-83917692D01*
X75994041Y-83917692D01*
X76038808Y-83913987D01*
X76112077Y-83907923D01*
X76112077Y-83321769D01*
X76038808Y-83315705D01*
X75965538Y-83309641D01*
X75965538Y-83920051D01*
X74643286Y-83920051D01*
X74688143Y-83912882D01*
X74709767Y-83897297D01*
X74712450Y-83871639D01*
X74712835Y-83800812D01*
X74728435Y-83765933D01*
X74758975Y-83767073D01*
X74804175Y-83804306D01*
X74834657Y-83839538D01*
X74878115Y-83887789D01*
X74916200Y-83911008D01*
X74963743Y-83917614D01*
X74972347Y-83917692D01*
X75148346Y-83917692D01*
X75232440Y-83917692D01*
X75286735Y-83914677D01*
X75314489Y-83901461D01*
X75328034Y-83871793D01*
X75328792Y-83868846D01*
X75337529Y-83843684D01*
X75354035Y-83829081D01*
X75387392Y-83822177D01*
X75446683Y-83820112D01*
X75483917Y-83820000D01*
X75558560Y-83821064D01*
X75604138Y-83826182D01*
X75630646Y-83838243D01*
X75648079Y-83860136D01*
X75652923Y-83868846D01*
X75680232Y-83902887D01*
X75722324Y-83916349D01*
X75753917Y-83917692D01*
X75801737Y-83914303D01*
X75827627Y-83905880D01*
X75829116Y-83903038D01*
X75821049Y-83881398D01*
X75798518Y-83830912D01*
X75764390Y-83757757D01*
X75721532Y-83668112D01*
X75688526Y-83600192D01*
X75636130Y-83493602D01*
X75597218Y-83417172D01*
X75568254Y-83365892D01*
X75545699Y-83334748D01*
X75526015Y-83318727D01*
X75505664Y-83312818D01*
X75485116Y-83312000D01*
X75438797Y-83318896D01*
X75412695Y-83335574D01*
X75412298Y-83336423D01*
X75400950Y-83361927D01*
X75376439Y-83416248D01*
X75341815Y-83492649D01*
X75300129Y-83584390D01*
X75275150Y-83639269D01*
X75148346Y-83917692D01*
X74972347Y-83917692D01*
X75020078Y-83914227D01*
X75045793Y-83905614D01*
X75047231Y-83902689D01*
X75037102Y-83878787D01*
X75011509Y-83835769D01*
X74996850Y-83813544D01*
X74946469Y-83739402D01*
X74996850Y-83692711D01*
X75035440Y-83632581D01*
X75048868Y-83556114D01*
X75039135Y-83475061D01*
X75008243Y-83401175D01*
X74958194Y-83346210D01*
X74935621Y-83333203D01*
X74894736Y-83323315D01*
X74827490Y-83315888D01*
X74746582Y-83312193D01*
X74723927Y-83312000D01*
X74558769Y-83312000D01*
X74558769Y-83928494D01*
X71057797Y-83928494D01*
X71057650Y-83893415D01*
X71057053Y-83727187D01*
X71055865Y-83380384D01*
X71530308Y-83380384D01*
X71532184Y-83422403D01*
X71544905Y-83442300D01*
X71579104Y-83448347D01*
X71618231Y-83448769D01*
X71706154Y-83448769D01*
X71706154Y-83917692D01*
X71862461Y-83917692D01*
X72175077Y-83917692D01*
X72331384Y-83917692D01*
X72331384Y-83681366D01*
X72453500Y-83687183D01*
X72575615Y-83693000D01*
X72587335Y-83917692D01*
X72722154Y-83917692D01*
X72722154Y-83336423D01*
X72937009Y-83336423D01*
X72937033Y-83360233D01*
X72937053Y-83415768D01*
X72937068Y-83495678D01*
X72937076Y-83592612D01*
X72937077Y-83634384D01*
X72937077Y-83917692D01*
X73406000Y-83917692D01*
X73406000Y-83780923D01*
X73249692Y-83780923D01*
X73172170Y-83780402D01*
X73125751Y-83777180D01*
X73102463Y-83768764D01*
X73094333Y-83752662D01*
X73093384Y-83732077D01*
X73095639Y-83705727D01*
X73108315Y-83691102D01*
X73140280Y-83684758D01*
X73200401Y-83683254D01*
X73219231Y-83683231D01*
X73285352Y-83681108D01*
X73334208Y-83675565D01*
X73354204Y-83668465D01*
X73357590Y-83640141D01*
X73353079Y-83600081D01*
X73345736Y-83571869D01*
X73331076Y-83555832D01*
X73299826Y-83548535D01*
X73242716Y-83546542D01*
X73208337Y-83546461D01*
X73134046Y-83544784D01*
X73092377Y-83537429D01*
X73076938Y-83520917D01*
X73081336Y-83491765D01*
X73085706Y-83479675D01*
X73100055Y-83463487D01*
X73132861Y-83453907D01*
X73191748Y-83449515D01*
X73251783Y-83448769D01*
X73406000Y-83448769D01*
X73406000Y-83370615D01*
X73913448Y-83370615D01*
X73916598Y-83446950D01*
X73948440Y-83499649D01*
X74006259Y-83525110D01*
X74031231Y-83526923D01*
X74083484Y-83516498D01*
X74117758Y-83496220D01*
X74143792Y-83445296D01*
X74144368Y-83380694D01*
X74119460Y-83318404D01*
X74118046Y-83316347D01*
X74109466Y-83309641D01*
X74073583Y-83281594D01*
X74018478Y-83275178D01*
X73965065Y-83293827D01*
X73925676Y-83334269D01*
X73913448Y-83370615D01*
X73406000Y-83370615D01*
X73406000Y-83310797D01*
X73171470Y-83316283D01*
X73080950Y-83319543D01*
X73006670Y-83324392D01*
X72956178Y-83330183D01*
X72937021Y-83336268D01*
X72937009Y-83336423D01*
X72722154Y-83336423D01*
X72722154Y-83312000D01*
X72585384Y-83312000D01*
X72585384Y-83546461D01*
X72331384Y-83546461D01*
X72331384Y-83312000D01*
X72175077Y-83312000D01*
X72175077Y-83917692D01*
X71862461Y-83917692D01*
X71862461Y-83448769D01*
X71950384Y-83448769D01*
X72004408Y-83447309D01*
X72029990Y-83437415D01*
X72037765Y-83410816D01*
X72038308Y-83380384D01*
X72038308Y-83312000D01*
X71530308Y-83312000D01*
X71530308Y-83380384D01*
X71055865Y-83380384D01*
X71051615Y-82139682D01*
X71417961Y-82139687D01*
X71784308Y-82139692D01*
X71784523Y-82349731D01*
X71785748Y-82445102D01*
X71788877Y-82533693D01*
X71793383Y-82603357D01*
X71796848Y-82633038D01*
X71808959Y-82706308D01*
X72429077Y-82706308D01*
X72429077Y-81690308D01*
X72938321Y-81690308D01*
X72926507Y-82121899D01*
X72923596Y-82252831D01*
X72922132Y-82374974D01*
X72922102Y-82481379D01*
X72923490Y-82565094D01*
X72926281Y-82619168D01*
X72927602Y-82629899D01*
X72940512Y-82706308D01*
X73484154Y-82706308D01*
X73484154Y-81690308D01*
X74011692Y-81690308D01*
X74011692Y-82706308D01*
X74656461Y-82706308D01*
X74656461Y-81690308D01*
X75184000Y-81690308D01*
X75184000Y-82706308D01*
X75462423Y-82706324D01*
X75740846Y-82706341D01*
X75735036Y-82198324D01*
X75729226Y-81690308D01*
X76239077Y-81690308D01*
X76239077Y-82706308D01*
X76595654Y-82706321D01*
X76952231Y-82706335D01*
X76946713Y-82198321D01*
X76941196Y-81690308D01*
X77450461Y-81690308D01*
X77450461Y-82706308D01*
X78036615Y-82706308D01*
X78036615Y-82139692D01*
X78779946Y-82139692D01*
X78777600Y-83688115D01*
X78777062Y-83931358D01*
X78776219Y-84163761D01*
X78775103Y-84382293D01*
X78773744Y-84583925D01*
X78772173Y-84765625D01*
X78770420Y-84924362D01*
X78768517Y-85057104D01*
X78766494Y-85160822D01*
X78764381Y-85232485D01*
X78762210Y-85269060D01*
X78761516Y-85272839D01*
X78743641Y-85295724D01*
X78700800Y-85340551D01*
X78637182Y-85403243D01*
X78556977Y-85479722D01*
X78464375Y-85565913D01*
X78397082Y-85627428D01*
X78046384Y-85945718D01*
X78035734Y-85246308D01*
X77626308Y-85246308D01*
X77626308Y-87907096D01*
X77692382Y-87984289D01*
X77737463Y-88048819D01*
X77773336Y-88120605D01*
X77782291Y-88146612D01*
X77795108Y-88256786D01*
X77774275Y-88360038D01*
X77725128Y-88452121D01*
X77653003Y-88528787D01*
X77563236Y-88585791D01*
X77461162Y-88618887D01*
X77352117Y-88623826D01*
X77241436Y-88596364D01*
X77225769Y-88589533D01*
X77125997Y-88524289D01*
X77054946Y-88437975D01*
X77013783Y-88337234D01*
X77003677Y-88228705D01*
X77025796Y-88119032D01*
X77081308Y-88014854D01*
X77117129Y-87971923D01*
X77172585Y-87913308D01*
X77179638Y-86584692D01*
X77186692Y-85256077D01*
X76996192Y-85250485D01*
X76805692Y-85244892D01*
X76805692Y-85506341D01*
X76806126Y-85612917D01*
X76808091Y-85687520D01*
X76812580Y-85737251D01*
X76820586Y-85769211D01*
X76833102Y-85790500D01*
X76847466Y-85805010D01*
X76900524Y-85875711D01*
X76932935Y-85967032D01*
X76942185Y-86064974D01*
X76925757Y-86155542D01*
X76914898Y-86180239D01*
X76847169Y-86269846D01*
X76754238Y-86336227D01*
X76645903Y-86373530D01*
X76581157Y-86379538D01*
X76491527Y-86362117D01*
X76404098Y-86315303D01*
X76331828Y-86247271D01*
X76303607Y-86204473D01*
X76264489Y-86095695D01*
X76264146Y-85991457D01*
X76302440Y-85892730D01*
X76358114Y-85821134D01*
X76416140Y-85760961D01*
X76405154Y-85256077D01*
X76243961Y-85250402D01*
X76082769Y-85244727D01*
X76082668Y-85924479D01*
X76082289Y-86093364D01*
X76081262Y-86258162D01*
X76079672Y-86412672D01*
X76077608Y-86550692D01*
X76075156Y-86666021D01*
X76072403Y-86752457D01*
X76070517Y-86789846D01*
X76058467Y-86975461D01*
X76120942Y-87043846D01*
X76196182Y-87145532D01*
X76232907Y-87244717D01*
X76231436Y-87343243D01*
X76192088Y-87442956D01*
X76190507Y-87445676D01*
X76124693Y-87523991D01*
X76038982Y-87577423D01*
X75941792Y-87605315D01*
X75841542Y-87607010D01*
X75746651Y-87581853D01*
X75665537Y-87529187D01*
X75630605Y-87489327D01*
X75582099Y-87389585D01*
X75568063Y-87281591D01*
X75587976Y-87174486D01*
X75641312Y-87077411D01*
X75655118Y-87060926D01*
X75711935Y-86997286D01*
X75706852Y-86126681D01*
X75701769Y-85256077D01*
X75452654Y-85250608D01*
X75203538Y-85245140D01*
X75203538Y-86434935D01*
X75203568Y-86680160D01*
X75203722Y-86889324D01*
X75204097Y-87065442D01*
X75204788Y-87211530D01*
X75205892Y-87330602D01*
X75207505Y-87425676D01*
X75209724Y-87499765D01*
X75212644Y-87555886D01*
X75216363Y-87597055D01*
X75220976Y-87626286D01*
X75226580Y-87646595D01*
X75233270Y-87660998D01*
X75241144Y-87672510D01*
X75243135Y-87675069D01*
X75307022Y-87785846D01*
X75338038Y-87909269D01*
X75340308Y-87952384D01*
X75323261Y-88069062D01*
X75276148Y-88168550D01*
X75205006Y-88248605D01*
X75115874Y-88306983D01*
X75014790Y-88341441D01*
X74907794Y-88349736D01*
X74800924Y-88329623D01*
X74700218Y-88278860D01*
X74629696Y-88216395D01*
X74562741Y-88116227D01*
X74527575Y-88004424D01*
X74524536Y-87889294D01*
X74553961Y-87779150D01*
X74608366Y-87691286D01*
X74656461Y-87634128D01*
X74656461Y-85245173D01*
X74397577Y-85250625D01*
X74138692Y-85256077D01*
X74128514Y-86988043D01*
X74191008Y-87075064D01*
X74233903Y-87146776D01*
X74255426Y-87220402D01*
X74261362Y-87273927D01*
X74263571Y-87342681D01*
X74254889Y-87391227D01*
X74230274Y-87437997D01*
X74207630Y-87470311D01*
X74131391Y-87549951D01*
X74041492Y-87594968D01*
X73932522Y-87607738D01*
X73899112Y-87605964D01*
X73788409Y-87579931D01*
X73700377Y-87524236D01*
X73638810Y-87442436D01*
X73607501Y-87338090D01*
X73606725Y-87331703D01*
X73609908Y-87219692D01*
X73644485Y-87123315D01*
X73701771Y-87054346D01*
X73760473Y-87004952D01*
X73763967Y-86130514D01*
X73767461Y-85256077D01*
X73415769Y-85256077D01*
X73410289Y-85506819D01*
X73404808Y-85757561D01*
X73463138Y-85823995D01*
X73505974Y-85884370D01*
X73538873Y-85950555D01*
X73543748Y-85964794D01*
X73554502Y-86063099D01*
X73531373Y-86157725D01*
X73479485Y-86242660D01*
X73403963Y-86311893D01*
X73309930Y-86359411D01*
X73202511Y-86379203D01*
X73190332Y-86379429D01*
X73127693Y-86366729D01*
X73053558Y-86333948D01*
X72983270Y-86289403D01*
X72932174Y-86241414D01*
X72929717Y-86238147D01*
X72896701Y-86168187D01*
X72881858Y-86082106D01*
X72884011Y-85990625D01*
X72901981Y-85904467D01*
X72934593Y-85834351D01*
X72978700Y-85792021D01*
X72993514Y-85780643D01*
X73003711Y-85760773D01*
X73010134Y-85725869D01*
X73013627Y-85669386D01*
X73015035Y-85584782D01*
X73015231Y-85508682D01*
X73015231Y-85244892D01*
X72824731Y-85250485D01*
X72634231Y-85256077D01*
X72624187Y-87906775D01*
X72689572Y-87983163D01*
X72761051Y-88090626D01*
X72793852Y-88200381D01*
X72787823Y-88311611D01*
X72763040Y-88384249D01*
X72697032Y-88487471D01*
X72605793Y-88560935D01*
X72518338Y-88597660D01*
X72446130Y-88617056D01*
X72393677Y-88623286D01*
X72344194Y-88617038D01*
X72304977Y-88606403D01*
X72210079Y-88561704D01*
X72126575Y-88492872D01*
X72078426Y-88428752D01*
X72047076Y-88340717D01*
X72038781Y-88239088D01*
X72051859Y-88135729D01*
X72084631Y-88042503D01*
X72135415Y-87971275D01*
X72144341Y-87963339D01*
X72150374Y-87955185D01*
X72155574Y-87939657D01*
X72160000Y-87914048D01*
X72163713Y-87875651D01*
X72166774Y-87821757D01*
X72169244Y-87749659D01*
X72171183Y-87656649D01*
X72172652Y-87540019D01*
X72173711Y-87397062D01*
X72174423Y-87225069D01*
X72174846Y-87021334D01*
X72175042Y-86783148D01*
X72175077Y-86592069D01*
X72175077Y-85246308D01*
X71785189Y-85246308D01*
X71779864Y-85598697D01*
X71774538Y-85951087D01*
X71637769Y-85830286D01*
X71567670Y-85767786D01*
X71480479Y-85689185D01*
X71387761Y-85604949D01*
X71308235Y-85532125D01*
X71234696Y-85464775D01*
X71169906Y-85406017D01*
X71120107Y-85361471D01*
X71091538Y-85336753D01*
X71088980Y-85334729D01*
X71084063Y-85325329D01*
X71079717Y-85303486D01*
X71075898Y-85266895D01*
X71072559Y-85213250D01*
X71069655Y-85140245D01*
X71067140Y-85045573D01*
X71064968Y-84926929D01*
X71063093Y-84782007D01*
X71061469Y-84608500D01*
X71061368Y-84593950D01*
X71670068Y-84593950D01*
X71670241Y-84681718D01*
X71671789Y-84748547D01*
X71674599Y-84786543D01*
X71675656Y-84791097D01*
X71700109Y-84808254D01*
X71747522Y-84816343D01*
X71754387Y-84816461D01*
X71799710Y-84813635D01*
X71819780Y-84797412D01*
X71826060Y-84756177D01*
X71826703Y-84743192D01*
X71828059Y-84672978D01*
X71826709Y-84605741D01*
X71826660Y-84604781D01*
X71830363Y-84558913D01*
X71847456Y-84549044D01*
X71877019Y-84574814D01*
X71918130Y-84635860D01*
X71921801Y-84642104D01*
X71959078Y-84697309D01*
X71994530Y-84725170D01*
X72034009Y-84734619D01*
X72071088Y-84734589D01*
X72099375Y-84720650D01*
X72128842Y-84685258D01*
X72156659Y-84641812D01*
X72191917Y-84589022D01*
X72221194Y-84553144D01*
X72235368Y-84542923D01*
X72244138Y-84560814D01*
X72250511Y-84607926D01*
X72253211Y-84674423D01*
X72253231Y-84680872D01*
X72253231Y-84818820D01*
X72281734Y-84816461D01*
X72624461Y-84816461D01*
X73093384Y-84816461D01*
X73093384Y-84684667D01*
X73294144Y-84684667D01*
X73294403Y-84752136D01*
X73296906Y-84791045D01*
X73298517Y-84796889D01*
X73324514Y-84810125D01*
X73371870Y-84816385D01*
X73377845Y-84816461D01*
X73445077Y-84816461D01*
X73445077Y-84494939D01*
X73606677Y-84655700D01*
X73680086Y-84727080D01*
X73733634Y-84774202D01*
X73773784Y-84801691D01*
X73806997Y-84814171D01*
X73831369Y-84816461D01*
X73894461Y-84816461D01*
X73894461Y-84230308D01*
X73738154Y-84230308D01*
X73738154Y-84376846D01*
X73736188Y-84446890D01*
X73730988Y-84498705D01*
X73723600Y-84522744D01*
X73722099Y-84523384D01*
X73702835Y-84510132D01*
X73662883Y-84474197D01*
X73608375Y-84421315D01*
X73554940Y-84367077D01*
X73471351Y-84284875D01*
X73409049Y-84233441D01*
X73366681Y-84211694D01*
X73358900Y-84210769D01*
X73341343Y-84212090D01*
X73328720Y-84219995D01*
X73319805Y-84240397D01*
X73313374Y-84279210D01*
X73308200Y-84342346D01*
X73303059Y-84435720D01*
X73300192Y-84494042D01*
X73296087Y-84596137D01*
X73294144Y-84684667D01*
X73093384Y-84684667D01*
X73093384Y-84679692D01*
X72939167Y-84679692D01*
X72848792Y-84676881D01*
X72794948Y-84668234D01*
X72775968Y-84655269D01*
X72770501Y-84619377D01*
X72789255Y-84596874D01*
X72837060Y-84585251D01*
X72917048Y-84582000D01*
X72987691Y-84581081D01*
X73028777Y-84576102D01*
X73049818Y-84563726D01*
X73060327Y-84540617D01*
X73062909Y-84530848D01*
X73069457Y-84490103D01*
X73066785Y-84470734D01*
X73044214Y-84465869D01*
X72993258Y-84461500D01*
X72924604Y-84458521D01*
X72919306Y-84458386D01*
X72847083Y-84455690D01*
X72805543Y-84450140D01*
X72786291Y-84438914D01*
X72780933Y-84419191D01*
X72780779Y-84411828D01*
X72783401Y-84390536D01*
X72796480Y-84377250D01*
X72827815Y-84369607D01*
X72885208Y-84365243D01*
X72941961Y-84362982D01*
X73103154Y-84357308D01*
X73103154Y-84288923D01*
X73099825Y-84242997D01*
X73083703Y-84224477D01*
X73049423Y-84221759D01*
X73006313Y-84222681D01*
X72936221Y-84224120D01*
X72851235Y-84225828D01*
X72810077Y-84226644D01*
X72624461Y-84230308D01*
X72624461Y-84816461D01*
X72281734Y-84816461D01*
X72399769Y-84806692D01*
X72410583Y-84230308D01*
X72327022Y-84231580D01*
X72286240Y-84233563D01*
X72256180Y-84242338D01*
X72229008Y-84264365D01*
X72196888Y-84306107D01*
X72151983Y-84374025D01*
X72149330Y-84378118D01*
X72106012Y-84442734D01*
X72069948Y-84492417D01*
X72046664Y-84519728D01*
X72041868Y-84522740D01*
X72025395Y-84507694D01*
X71991740Y-84467677D01*
X71946457Y-84409503D01*
X71913573Y-84365390D01*
X71859711Y-84293426D01*
X71821561Y-84247985D01*
X71792588Y-84223466D01*
X71766258Y-84214265D01*
X71737727Y-84214611D01*
X71676846Y-84220538D01*
X71671384Y-84493136D01*
X71670068Y-84593950D01*
X71061368Y-84593950D01*
X71060052Y-84404103D01*
X71058794Y-84166510D01*
G37*
G36*
X73860527Y-80851148D02*
G01*
X73945845Y-80892557D01*
X74016263Y-80955233D01*
X74067352Y-81034750D01*
X74094686Y-81126679D01*
X74093836Y-81226595D01*
X74060375Y-81330069D01*
X74035012Y-81374319D01*
X73992916Y-81415244D01*
X73926606Y-81456327D01*
X73850295Y-81490639D01*
X73778198Y-81511251D01*
X73747923Y-81514255D01*
X73694020Y-81505557D01*
X73628747Y-81483525D01*
X73606078Y-81473233D01*
X73514891Y-81409961D01*
X73456550Y-81325828D01*
X73429715Y-81218896D01*
X73429680Y-81218535D01*
X73434105Y-81105168D01*
X73467563Y-81004429D01*
X73526635Y-80924744D01*
X73559444Y-80898795D01*
X73662899Y-80849840D01*
X73764736Y-80835433D01*
X73860527Y-80851148D01*
G37*
G36*
X75501273Y-83577717D02*
G01*
X75518310Y-83603926D01*
X75545874Y-83651656D01*
X75550448Y-83674929D01*
X75529590Y-83682531D01*
X75496243Y-83683231D01*
X75455767Y-83679762D01*
X75444541Y-83661830D01*
X75450098Y-83629500D01*
X75465453Y-83576317D01*
X75480679Y-83559743D01*
X75501273Y-83577717D01*
G37*
G36*
X72717010Y-80841784D02*
G01*
X72808512Y-80876486D01*
X72886443Y-80936580D01*
X72946000Y-81015485D01*
X72982380Y-81106618D01*
X72990781Y-81203398D01*
X72966399Y-81299241D01*
X72960872Y-81310702D01*
X72906207Y-81395969D01*
X72839391Y-81452981D01*
X72767409Y-81486154D01*
X72677930Y-81509430D01*
X72599797Y-81506613D01*
X72515464Y-81477410D01*
X72422708Y-81417323D01*
X72359497Y-81339349D01*
X72324809Y-81249943D01*
X72317618Y-81155559D01*
X72336901Y-81062652D01*
X72381633Y-80977676D01*
X72450791Y-80907086D01*
X72543351Y-80857336D01*
X72616738Y-80839056D01*
X72717010Y-80841784D01*
G37*
G36*
X77318944Y-80862951D02*
G01*
X77402594Y-80914843D01*
X77439227Y-80954475D01*
X77496704Y-81057981D01*
X77518311Y-81162981D01*
X77506560Y-81263636D01*
X77463965Y-81354103D01*
X77393038Y-81428541D01*
X77296290Y-81481110D01*
X77203139Y-81503350D01*
X77139216Y-81505475D01*
X77082601Y-81498115D01*
X77077542Y-81496643D01*
X76979812Y-81446646D01*
X76906295Y-81371173D01*
X76859880Y-81277495D01*
X76843456Y-81172881D01*
X76859912Y-81064603D01*
X76883239Y-81007652D01*
X76944027Y-80927567D01*
X77026595Y-80872231D01*
X77122340Y-80842468D01*
X77222657Y-80839100D01*
X77318944Y-80862951D01*
G37*
%TO.C,SW3*%
X137064000Y-86772000D02*
X137064000Y-85022000D01*
X137064000Y-74772000D02*
X137064000Y-76522000D01*
X125064000Y-74772000D02*
X125064000Y-76522000D01*
X125064000Y-86772000D02*
X137064000Y-86772000D01*
X125064000Y-80772000D02*
X125064000Y-79942000D01*
X125064000Y-80772000D02*
X125064000Y-81602000D01*
X137064000Y-80772000D02*
X137064000Y-81602000D01*
X125064000Y-86772000D02*
X125064000Y-85022000D01*
X137064000Y-80772000D02*
X137064000Y-79942000D01*
X125064000Y-74772000D02*
X137064000Y-74772000D01*
%TO.C,SW1*%
X152304000Y-74772000D02*
X152304000Y-76522000D01*
X140304000Y-74772000D02*
X140304000Y-76522000D01*
X152304000Y-80772000D02*
X152304000Y-81602000D01*
X140304000Y-80772000D02*
X140304000Y-81602000D01*
X140304000Y-80772000D02*
X140304000Y-79942000D01*
X140304000Y-86772000D02*
X140304000Y-85022000D01*
X140304000Y-86772000D02*
X152304000Y-86772000D01*
X152304000Y-86772000D02*
X152304000Y-85022000D01*
X140304000Y-74772000D02*
X152304000Y-74772000D01*
X152304000Y-80772000D02*
X152304000Y-79942000D01*
%TO.C,SW4*%
X125064000Y-99472000D02*
X137064000Y-99472000D01*
X125064000Y-87472000D02*
X137064000Y-87472000D01*
X137064000Y-99472000D02*
X137064000Y-97722000D01*
X125064000Y-93472000D02*
X125064000Y-92642000D01*
X137064000Y-93472000D02*
X137064000Y-92642000D01*
X125064000Y-87472000D02*
X125064000Y-89222000D01*
X137064000Y-87472000D02*
X137064000Y-89222000D01*
X125064000Y-99472000D02*
X125064000Y-97722000D01*
X125064000Y-93472000D02*
X125064000Y-94302000D01*
X137064000Y-93472000D02*
X137064000Y-94302000D01*
%TD*%
M02*
