M48
; DRILL file {KiCad (6.0.9)} date Thu Nov  2 17:09:30 2023
; FORMAT={-:-/ absolute / metric / decimal}
; #@! TF.CreationDate,2023-11-02T17:09:30-06:00
; #@! TF.GenerationSoftware,Kicad,Pcbnew,(6.0.9)
; #@! TF.FileFunction,MixedPlating,1,2
FMAT,2
METRIC
; #@! TA.AperFunction,Plated,PTH,ViaDrill
T1C0.400
; #@! TA.AperFunction,Plated,PTH,ComponentDrill
T2C1.000
%
G90
G05
T1
X110.236Y-96.012
X110.475Y-85.867
X131.064Y-83.312
X131.064Y-96.012
X146.558Y-83.312
X146.558Y-90.932
T2
X107.442Y-78.247
X107.442Y-80.787
X107.442Y-83.327
X107.442Y-85.867
X107.442Y-88.407
X107.442Y-90.947
X107.442Y-93.487
X107.442Y-96.027
X124.714Y-78.232
X124.714Y-83.312
X124.714Y-90.932
X124.714Y-96.012
X137.414Y-78.232
X137.414Y-83.312
X137.414Y-90.932
X137.414Y-96.012
X139.954Y-78.232
X139.954Y-83.312
X139.954Y-90.932
X139.954Y-96.012
X152.654Y-78.232
X152.654Y-83.312
X152.654Y-90.932
X152.654Y-96.012
X223.012Y-80.772
X223.012Y-93.472
X225.552Y-80.772
X225.552Y-93.472
X228.092Y-80.772
X228.092Y-93.472
X230.632Y-80.772
X230.632Y-93.472
X233.172Y-80.772
X233.172Y-93.472
X235.712Y-80.772
X235.712Y-93.472
T0
M30
