%TF.GenerationSoftware,KiCad,Pcbnew,(6.0.9)*%
%TF.CreationDate,2023-11-02T17:09:57-06:00*%
%TF.ProjectId,MagicWand_Motherboard,4d616769-6357-4616-9e64-5f4d6f746865,rev?*%
%TF.SameCoordinates,Original*%
%TF.FileFunction,Copper,L1,Top*%
%TF.FilePolarity,Positive*%
%FSLAX46Y46*%
G04 Gerber Fmt 4.6, Leading zero omitted, Abs format (unit mm)*
G04 Created by KiCad (PCBNEW (6.0.9)) date 2023-11-02 17:09:57*
%MOMM*%
%LPD*%
G01*
G04 APERTURE LIST*
%TA.AperFunction,ComponentPad*%
%ADD10C,1.700000*%
%TD*%
%TA.AperFunction,ComponentPad*%
%ADD11R,1.700000X1.700000*%
%TD*%
%TA.AperFunction,ComponentPad*%
%ADD12O,1.700000X1.700000*%
%TD*%
%TA.AperFunction,ViaPad*%
%ADD13C,0.800000*%
%TD*%
%TA.AperFunction,Conductor*%
%ADD14C,0.250000*%
%TD*%
G04 APERTURE END LIST*
D10*
%TO.P,SW2,1,1*%
%TO.N,Net-(J1-Pad3)*%
X139954000Y-96012000D03*
X152654000Y-96012000D03*
%TO.P,SW2,2,2*%
%TO.N,GND*%
X139954000Y-90932000D03*
X152654000Y-90932000D03*
%TD*%
%TO.P,SW3,1,1*%
%TO.N,Net-(J1-Pad4)*%
X137414000Y-78232000D03*
X124714000Y-78232000D03*
%TO.P,SW3,2,2*%
%TO.N,GND*%
X124714000Y-83312000D03*
X137414000Y-83312000D03*
%TD*%
%TO.P,SW1,1,1*%
%TO.N,Net-(J1-Pad2)*%
X139954000Y-78232000D03*
X152654000Y-78232000D03*
%TO.P,SW1,2,2*%
%TO.N,GND*%
X139954000Y-83312000D03*
X152654000Y-83312000D03*
%TD*%
%TO.P,SW4,1,1*%
%TO.N,Net-(J1-Pad5)*%
X124714000Y-90932000D03*
X137414000Y-90932000D03*
%TO.P,SW4,2,2*%
%TO.N,GND*%
X137414000Y-96012000D03*
X124714000Y-96012000D03*
%TD*%
%TO.P,U1,1,D0*%
%TO.N,unconnected-(U1-Pad1)*%
X235712000Y-93472000D03*
%TO.P,U1,2,VCC*%
%TO.N,VCC*%
X233172000Y-93472000D03*
%TO.P,U1,3,RX*%
%TO.N,Net-(J1-Pad6)*%
X230632000Y-93472000D03*
%TO.P,U1,4,TX*%
%TO.N,Net-(J1-Pad7)*%
X228092000Y-93472000D03*
%TO.P,U1,5,GND*%
%TO.N,GND*%
X225552000Y-93472000D03*
%TO.P,U1,6,D1*%
%TO.N,unconnected-(U1-Pad6)*%
X223012000Y-93472000D03*
%TO.P,U1,7,D3*%
%TO.N,unconnected-(U1-Pad7)*%
X223012000Y-80772000D03*
%TO.P,U1,8,GND*%
%TO.N,unconnected-(U1-Pad8)*%
X225552000Y-80772000D03*
%TO.P,U1,9,SDA*%
%TO.N,unconnected-(U1-Pad9)*%
X228092000Y-80772000D03*
%TO.P,U1,10,SCL*%
%TO.N,unconnected-(U1-Pad10)*%
X230632000Y-80772000D03*
%TO.P,U1,11,VCC*%
%TO.N,unconnected-(U1-Pad11)*%
X233172000Y-80772000D03*
%TO.P,U1,12,D2*%
%TO.N,unconnected-(U1-Pad12)*%
X235712000Y-80772000D03*
%TD*%
D11*
%TO.P,J1,1,Pin_1*%
%TO.N,VCC*%
X107442000Y-78247000D03*
D12*
%TO.P,J1,2,Pin_2*%
%TO.N,Net-(J1-Pad2)*%
X107442000Y-80787000D03*
%TO.P,J1,3,Pin_3*%
%TO.N,Net-(J1-Pad3)*%
X107442000Y-83327000D03*
%TO.P,J1,4,Pin_4*%
%TO.N,Net-(J1-Pad4)*%
X107442000Y-85867000D03*
%TO.P,J1,5,Pin_5*%
%TO.N,Net-(J1-Pad5)*%
X107442000Y-88407000D03*
%TO.P,J1,6,Pin_6*%
%TO.N,Net-(J1-Pad6)*%
X107442000Y-90947000D03*
%TO.P,J1,7,Pin_7*%
%TO.N,Net-(J1-Pad7)*%
X107442000Y-93487000D03*
%TO.P,J1,8,Pin_8*%
%TO.N,GND*%
X107442000Y-96027000D03*
%TD*%
D13*
%TO.N,Net-(J1-Pad4)*%
X110475000Y-85867000D03*
%TO.N,GND*%
X110236000Y-96012000D03*
X146558000Y-83312000D03*
X131064000Y-83312000D03*
X131064000Y-96012000D03*
X146558000Y-90932000D03*
%TD*%
D14*
%TO.N,Net-(J1-Pad4)*%
X110475000Y-85867000D02*
X107442000Y-85867000D01*
%TO.N,VCC*%
X233172000Y-93472000D02*
X226822000Y-87122000D01*
X107442000Y-78247000D02*
X115809000Y-86614000D01*
X115824000Y-86614000D02*
X116332000Y-87122000D01*
X116332000Y-87122000D02*
X226822000Y-87122000D01*
X115809000Y-86614000D02*
X115824000Y-86614000D01*
%TO.N,Net-(J1-Pad2)*%
X139954000Y-78232000D02*
X152654000Y-78232000D01*
%TO.N,Net-(J1-Pad3)*%
X105664000Y-98552000D02*
X104648000Y-97536000D01*
X104648000Y-84582000D02*
X105903000Y-83327000D01*
X139954000Y-96012000D02*
X152654000Y-96012000D01*
X137414000Y-98552000D02*
X105664000Y-98552000D01*
X104648000Y-97536000D02*
X104648000Y-84582000D01*
X139954000Y-96012000D02*
X137414000Y-98552000D01*
X105903000Y-83327000D02*
X107442000Y-83327000D01*
%TO.N,Net-(J1-Pad4)*%
X124714000Y-78232000D02*
X137414000Y-78232000D01*
%TO.N,Net-(J1-Pad5)*%
X124714000Y-90932000D02*
X122174000Y-88392000D01*
X121920000Y-88392000D02*
X121905000Y-88407000D01*
X124714000Y-90932000D02*
X137414000Y-90932000D01*
X121905000Y-88407000D02*
X107442000Y-88407000D01*
X122174000Y-88392000D02*
X121920000Y-88392000D01*
%TO.N,Net-(J1-Pad6)*%
X230632000Y-93472000D02*
X227330000Y-90170000D01*
X109205000Y-92710000D02*
X107442000Y-90947000D01*
X217424000Y-92710000D02*
X109205000Y-92710000D01*
X219964000Y-90170000D02*
X217424000Y-92710000D01*
X227330000Y-90170000D02*
X219964000Y-90170000D01*
%TO.N,Net-(J1-Pad7)*%
X217917000Y-93487000D02*
X107442000Y-93487000D01*
X220472000Y-90932000D02*
X225552000Y-90932000D01*
X217917000Y-93487000D02*
X220472000Y-90932000D01*
X225552000Y-90932000D02*
X228092000Y-93472000D01*
%TO.N,GND*%
X107442000Y-96027000D02*
X110221000Y-96027000D01*
X131064000Y-83312000D02*
X137414000Y-83312000D01*
X124714000Y-96012000D02*
X131064000Y-96012000D01*
X139954000Y-83312000D02*
X146558000Y-83312000D01*
X131064000Y-96012000D02*
X137414000Y-96012000D01*
X146558000Y-90932000D02*
X152654000Y-90932000D01*
X139954000Y-90932000D02*
X146558000Y-90932000D01*
X124714000Y-83312000D02*
X131064000Y-83312000D01*
X152654000Y-83312000D02*
X146558000Y-83312000D01*
X110221000Y-96027000D02*
X110236000Y-96012000D01*
%TD*%
M02*
